<?xml version="1.0" encoding="UTF-8"?>
<svg xmlns="http://www.w3.org/2000/svg" viewBox="0 0 452 406.72">
  <defs>
    <style>
      .cls-1 {
        fill: #755957;
      }

      .cls-2 {
        fill: #63d4fc;
      }

      .cls-3 {
        fill: #e6a88a;
      }

      .cls-4 {
        fill: #89b748;
      }

      .cls-5 {
        fill: #fff;
        font-family: Montserrat-Black, Montserrat;
        font-size: 35px;
        font-weight: 800;
      }

      .cls-6 {
        fill: #6b5251;
      }

      .cls-7 {
        fill: #1c262d;
      }

      .cls-8 {
        fill: #a0d161;
      }

      .cls-9, .cls-10 {
        fill: none;
        stroke: #282828;
        stroke-miterlimit: 10;
        stroke-width: 3px;
      }

      .cls-11 {
        fill: #755b5a;
      }

      .cls-12 {
        fill: #d8977d;
      }

      .cls-10 {
        stroke-linecap: round;
      }

      .cls-13 {
        fill: #a5e9f9;
      }

      .cls-14 {
        fill: #545953;
      }

      .cls-15 {
        fill: #40443f;
      }

      .cls-16 {
        fill: #bde288;
      }

      .cls-17 {
        fill: #c68771;
      }

      .cls-18 {
        fill: #282828;
      }

      .cls-19 {
        fill: #87e5f4;
      }

      .cls-20 {
        fill: #edb29a;
      }

      .cls-21 {
        letter-spacing: -.01em;
      }

      .cls-22 {
        fill: #aeedf4;
      }

      .cls-23 {
        fill: #947976;
      }
    </style>
  </defs>
  <g id="BACKGROUND">
    <g>
      <circle class="cls-19" cx="224.06" cy="181.82" r="152.89" transform="translate(-62.94 211.68) rotate(-45)"/>
      <path class="cls-19" d="M405.5,119.09c0,14.91-12.09,27-27,27h-81c-14.91,0-27-12.09-27-27h0c0-14.91,12.09-27,27-27h81c14.91,0,27,12.09,27,27h0Z"/>
      <path class="cls-22" d="M436.5,146.54c0,12.12-9,21.95-20.1,21.95h-60.3c-11.1,0-20.1-9.83-20.1-21.95h0c0-12.12,9-21.95,20.1-21.95h60.3c11.1,0,20.1,9.83,20.1,21.95h0Z"/>
      <path class="cls-19" d="M446.5,220.09c0,14.91-12.09,27-27,27h-81c-14.91,0-27-12.09-27-27h0c0-14.91,12.09-27,27-27h81c14.91,0,27,12.09,27,27h0Z"/>
      <path class="cls-19" d="M154.5,168.49c0,16.35-13.25,29.6-29.6,29.6H36.1c-16.35,0-29.6-13.25-29.6-29.6h0c0-16.35,13.25-29.6,29.6-29.6h88.8c16.35,0,29.6,13.25,29.6,29.6h0Z"/>
      <path class="cls-19" d="M167.5,270.09c0,14.91-12.09,27-27,27H59.5c-14.91,0-27-12.09-27-27h0c0-14.91,12.09-27,27-27h81c14.91,0,27,12.09,27,27h0Z"/>
      <path class="cls-22" d="M129.15,197.89c0,11.63-9,21.06-20.1,21.06h-60.3c-11.1,0-20.1-9.43-20.1-21.06h0c0-11.63,9-21.06,20.1-21.06h60.3c11.1,0,20.1,9.43,20.1,21.06h0Z"/>
    </g>
  </g>
  <g id="OBJECTS">
    <path class="cls-8" d="M71.93,309.68c-2.02-5.88-5.86-10.9-10.87-14.39,2.14,3.06,3.7,6.55,4.53,10.32,2.3,1.08,4.42,2.46,6.34,4.07Z"/>
    <g>
      <path class="cls-4" d="M77.06,315.3c3.28,4.7,5.21,10.4,5.21,16.56,0,16.02-12.98,29-29,29-5.84,0-11.27-1.73-15.82-4.7-4.19,2.35-9.03,3.7-14.18,3.7-6.16,0-11.87-1.93-16.57-5.2,5.24,7.51,13.94,12.43,23.79,12.43,5.15,0,9.98-1.35,14.18-3.7,4.55,2.97,9.98,4.7,15.82,4.7,16.02,0,29-12.98,29-29,0-9.85-4.93-18.54-12.44-23.78Z"/>
      <path class="cls-8" d="M77.06,315.3c-1.46-2.09-3.19-3.99-5.14-5.63.35,1.03.65,2.08.89,3.15,1.49.7,2.91,1.54,4.25,2.47Z"/>
      <g>
        <path class="cls-8" d="M72.52,311.63c-.18-.66-.37-1.32-.59-1.96-1.16-.97-2.4-1.85-3.7-2.64.27.84.5,1.7.7,2.57,1.25.59,2.45,1.27,3.59,2.03Z"/>
        <path class="cls-16" d="M19.51,316.88c2.84-13.03,14.44-22.79,28.33-22.79,5.53,0,10.68,1.56,15.07,4.24-.56-1.05-1.17-2.07-1.85-3.04-4.69-3.27-10.4-5.2-16.56-5.2-13.88,0-25.48,9.76-28.33,22.79-8.76,4.99-14.67,14.41-14.67,25.21,0,6.16,1.93,11.87,5.21,16.57.49.34.99.66,1.5.97-2.14-4.04-3.38-8.64-3.38-13.54,0-10.8,5.91-20.22,14.67-25.21Z"/>
        <path class="cls-8" d="M78.9,318.34c-.56-1.05-1.16-2.07-1.84-3.04-.52-.37-1.07-.7-1.62-1.04.27.84.51,1.69.71,2.56.95.45,1.86.97,2.75,1.51Z"/>
        <path class="cls-8" d="M75.44,314.27c-.06-.2-.12-.4-.19-.59-.87-.73-1.79-1.41-2.74-2.04.11.4.21.79.3,1.19.91.43,1.78.92,2.63,1.44Z"/>
        <path class="cls-8" d="M68.23,307.04c-.89-2.79-2.19-5.4-3.84-7.75-.48-.34-.98-.65-1.48-.96,1.2,2.27,2.12,4.7,2.68,7.28.91.43,1.78.91,2.64,1.43Z"/>
        <path class="cls-8" d="M37.45,356.16c4.55,2.97,9.98,4.7,15.82,4.7,16.02,0,29-12.98,29-29,0-4.89-1.23-9.48-3.38-13.52-.89-.55-1.8-1.07-2.75-1.51-.19-.87-.44-1.72-.71-2.56-.85-.52-1.72-1.01-2.63-1.44-.09-.4-.19-.8-.3-1.19-1.14-.76-2.34-1.44-3.59-2.03-.19-.87-.43-1.73-.7-2.57-.85-.52-1.73-1.01-2.64-1.43-.57-2.57-1.48-5.01-2.68-7.28-4.39-2.68-9.55-4.24-15.07-4.24-13.88,0-25.48,9.76-28.33,22.79-8.76,4.99-14.67,14.41-14.67,25.21,0,4.89,1.23,9.49,3.38,13.54,4.39,2.68,9.54,4.24,15.06,4.24,5.15,0,9.98-1.35,14.18-3.7Z"/>
      </g>
      <path class="cls-9" d="M72.82,312.83c-2.86-13.01-14.45-22.74-28.32-22.74s-25.48,9.76-28.33,22.79c-8.76,4.99-14.67,14.41-14.67,25.21,0,16.02,12.98,29,29,29,5.15,0,9.98-1.35,14.18-3.7,4.55,2.97,9.98,4.7,15.82,4.7,16.02,0,29-12.98,29-29,0-11.61-6.83-21.62-16.68-26.26Z"/>
      <line class="cls-10" x1="44.5" y1="330.09" x2="44.5" y2="405.09"/>
      <line class="cls-10" x1="56.5" y1="334.17" x2="44.72" y2="347.7"/>
    </g>
    <g>
      <path class="cls-4" d="M435.24,294.9c4.02,5.76,6.39,12.76,6.39,20.32,0,19.66-15.93,35.59-35.59,35.59-7.17,0-13.83-2.13-19.42-5.77-5.15,2.89-11.08,4.54-17.4,4.54-7.56,0-14.57-2.37-20.33-6.39,6.43,9.22,17.11,15.26,29.2,15.26,6.32,0,12.25-1.66,17.4-4.55,5.59,3.65,12.25,5.77,19.42,5.77,19.65,0,35.59-15.93,35.59-35.59,0-12.09-6.05-22.76-15.26-29.19Z"/>
      <g>
        <path class="cls-8" d="M429.66,290.4c-.22-.81-.46-1.61-.73-2.4-1.42-1.2-2.94-2.27-4.54-3.24.33,1.03.62,2.08.85,3.15,1.54.72,3,1.56,4.41,2.5Z"/>
        <path class="cls-16" d="M364.6,296.83c3.49-15.99,17.72-27.97,34.76-27.97,6.78,0,13.11,1.91,18.5,5.2-.69-1.29-1.44-2.54-2.27-3.74-5.76-4.02-12.76-6.38-20.32-6.38-17.04,0-31.27,11.98-34.76,27.97-10.75,6.12-18.01,17.68-18.01,30.94,0,7.56,2.37,14.57,6.39,20.33.6.42,1.22.81,1.84,1.19-2.63-4.96-4.14-10.61-4.14-16.62,0-13.26,7.25-24.82,18.01-30.94Z"/>
        <path class="cls-8" d="M437.49,298.63c-.68-1.29-1.42-2.54-2.25-3.73-.64-.45-1.31-.86-1.99-1.27.33,1.03.63,2.08.87,3.15,1.17.55,2.28,1.19,3.37,1.86Z"/>
        <path class="cls-8" d="M433.25,293.62c-.08-.24-.14-.48-.23-.72-1.07-.9-2.2-1.73-3.37-2.51.13.49.26.97.37,1.47,1.12.52,2.18,1.13,3.23,1.76Z"/>
        <path class="cls-8" d="M424.39,284.75c-1.09-3.42-2.69-6.62-4.71-9.51-.59-.41-1.21-.8-1.82-1.17,1.47,2.78,2.6,5.77,3.29,8.93,1.12.52,2.19,1.12,3.24,1.76Z"/>
        <path class="cls-8" d="M386.62,345.04c5.59,3.65,12.25,5.77,19.42,5.77,19.66,0,35.59-15.93,35.59-35.59,0-6-1.51-11.63-4.14-16.59-1.09-.67-2.2-1.31-3.37-1.86-.24-1.07-.54-2.11-.87-3.15-1.04-.64-2.11-1.24-3.23-1.76-.11-.5-.24-.98-.37-1.47-1.41-.93-2.87-1.77-4.41-2.5-.24-1.07-.52-2.12-.85-3.15-1.05-.64-2.12-1.23-3.24-1.76-.69-3.16-1.82-6.15-3.29-8.93-5.39-3.29-11.72-5.2-18.5-5.2-17.04,0-31.27,11.97-34.76,27.97-10.75,6.12-18.01,17.68-18.01,30.94,0,6.01,1.51,11.65,4.14,16.62,5.39,3.29,11.71,5.2,18.49,5.2,6.32,0,12.25-1.66,17.4-4.54Z"/>
      </g>
      <path class="cls-9" d="M430.02,291.86c-3.51-15.96-17.73-27.91-34.75-27.91s-31.27,11.98-34.76,27.97c-10.75,6.12-18.01,17.68-18.01,30.94,0,19.66,15.94,35.59,35.59,35.59,6.32,0,12.25-1.66,17.4-4.55,5.59,3.65,12.25,5.77,19.42,5.77,19.65,0,35.59-15.93,35.59-35.59,0-14.25-8.38-26.54-20.48-32.22Z"/>
      <line class="cls-10" x1="395.27" y1="313.04" x2="395.27" y2="405.09"/>
      <line class="cls-10" x1="410" y1="318.06" x2="395.54" y2="334.65"/>
    </g>
    <path class="cls-7" d="M445,406.72H3.11c-.83,0-1.5-.67-1.5-1.5h0c0-.83.67-1.5,1.5-1.5h441.89c.83,0,1.5.67,1.5,1.5h0c0,.83-.67,1.5-1.5,1.5Z"/>
    <g>
      <g>
        <g>
          <polygon class="cls-20" points="120.54 83.56 120.54 84.56 120.54 404.56 135.83 404.56 135.83 83.56 120.54 83.56"/>
          <polygon class="cls-3" points="135.83 83.56 135.83 404.56 312.83 404.56 312.83 84.56 312.83 83.56 135.83 83.56"/>
        </g>
        <g>
          <polygon class="cls-12" points="312.83 75.01 120.54 75.01 120.54 83.56 312.83 83.56 327.72 83.56 327.72 75.01 312.83 75.01"/>
          <polygon class="cls-17" points="312.83 83.56 312.83 84.56 312.83 404.56 327.72 404.56 327.72 84.56 327.72 83.56 312.83 83.56"/>
        </g>
      </g>
      <polygon class="cls-18" points="333 76.16 114.79 76.16 109.55 57.48 338.25 57.48 333 76.16"/>
      <path class="cls-18" d="M333.76,77.16H114.03l-5.81-20.68h231.34l-5.81,20.68ZM115.55,75.16h216.7l4.68-16.68H110.87l4.68,16.68Z"/>
      <g>
        <g>
          <path class="cls-2" d="M156.82,179.83c2.75-.59,5.95-1.28,8.96-1.93-3.73.27-6.81,1.13-8.96,1.93Z"/>
          <path class="cls-2" d="M173,178.19c5.94,3.14,9.76,13.2-.96,16.16-8.52,2.35-14.98,8.79-18.59,13.2v18.99h29.57v-45.16c-3.52-1.72-6.9-2.7-10.03-3.17Z"/>
          <path class="cls-13" d="M172.04,194.35c10.72-2.96,6.89-13.02.96-16.16-2.6-.4-5.02-.45-7.22-.29-3.01.64-6.21,1.34-8.96,1.93-2.15.8-3.37,1.54-3.37,1.54v26.18c3.6-4.41,10.07-10.85,18.59-13.2Z"/>
        </g>
        <polygon class="cls-12" points="184.57 227.76 197.56 238.2 162.76 238.2 152.22 230.8 184.57 227.76"/>
        <path class="cls-6" d="M183.02,177.38c-16.4-8-29.57,0-29.57,0v4.44s13.17-8,29.57,0v-4.44Z"/>
        <path class="cls-23" d="M184.64,175.13c-17-9.21-32.8,0-32.8,0v2.82s16.2-9.41,32.8,0v-2.82Z"/>
        <rect class="cls-23" x="152.11" y="226.71" width="31.99" height="4.3"/>
        <path class="cls-18" d="M184.8,231.71h-33.38v-5.69h33.38v5.69ZM152.8,230.32h30.6v-2.91h-30.6v2.91Z"/>
        <path class="cls-18" d="M152.76,183.05v-6.06s.33-.2.33-.2c.25-.15,6.12-3.66,14.98-3.66,5.19,0,10.33,1.22,15.26,3.62l.39.19v5.98l-1-.49c-4.74-2.31-9.67-3.48-14.65-3.48-8.44,0-14.2,3.42-14.26,3.45l-1.06.64ZM168.07,177.57c4.84,0,9.64,1.06,14.26,3.15v-2.9c-4.62-2.19-9.42-3.3-14.26-3.3-7.31,0-12.58,2.55-13.92,3.27v2.87c2.09-1.03,7.13-3.09,13.92-3.09Z"/>
        <path class="cls-18" d="M151.14,179.17v-4.43l.35-.2c.29-.17,7.29-4.19,17.09-4.19,5.76,0,11.27,1.41,16.39,4.18l.36.2v4.43l-1.04-.59c-4.79-2.71-10.02-4.09-15.54-4.09-9.42,0-16.5,4.05-16.57,4.09l-1.05.61ZM152.54,175.55v1.26c2.36-1.16,8.47-3.73,16.22-3.73,5.37,0,10.47,1.25,15.19,3.71v-1.23c-4.81-2.53-9.98-3.81-15.36-3.81-8.21,0-14.53,3.02-16.04,3.81Z"/>
        <path class="cls-18" d="M183.33,181.09c-4.93-2.41-10.07-3.62-15.26-3.62-8.86,0-14.73,3.51-14.98,3.66l-.33.2v46.25h30.96v-46.3l-.39-.19ZM156.47,203.8h10.71v19.82h-10.71v-19.82ZM169.33,203.8h10.67v19.82h-10.67v-19.82ZM180.01,201.65h-10.67v-19.99c3.2.15,6.82.92,10.67,2.79v17.2ZM167.18,201.65h-10.71v-17.2s4.25-2.58,10.71-2.81v20.01Z"/>
      </g>
      <g>
        <g>
          <path class="cls-2" d="M214.94,179.83c2.75-.59,5.95-1.28,8.96-1.93-3.73.27-6.81,1.13-8.96,1.93Z"/>
          <path class="cls-2" d="M231.12,178.19c5.94,3.14,9.76,13.2-.96,16.16-8.52,2.35-14.99,8.79-18.59,13.2v18.99h29.57v-45.16c-3.52-1.72-6.9-2.7-10.03-3.17Z"/>
          <path class="cls-13" d="M230.16,194.35c10.72-2.96,6.89-13.02.96-16.16-2.6-.4-5.02-.45-7.22-.29-3.01.64-6.21,1.34-8.96,1.93-2.15.8-3.37,1.54-3.37,1.54v26.18c3.6-4.41,10.07-10.85,18.59-13.2Z"/>
        </g>
        <polygon class="cls-12" points="242.58 227.76 255.57 238.2 220.77 238.2 210.23 230.8 242.58 227.76"/>
        <path class="cls-6" d="M241.15,177.38c-16.4-8-29.57,0-29.57,0v4.44s13.17-8,29.57,0v-4.44Z"/>
        <path class="cls-23" d="M242.76,175.13c-17-9.21-32.8,0-32.8,0v2.82s16.2-9.41,32.8,0v-2.82Z"/>
        <path class="cls-18" d="M210.88,183.05v-6.06s.33-.2.33-.2c.25-.15,6.12-3.66,14.98-3.66,5.19,0,10.33,1.22,15.26,3.62l.39.19v5.98l-1-.49c-4.74-2.31-9.67-3.48-14.65-3.48-8.44,0-14.2,3.42-14.26,3.45l-1.06.64ZM226.19,177.57c4.84,0,9.64,1.06,14.26,3.15v-2.9c-4.62-2.19-9.41-3.3-14.26-3.3-7.31,0-12.58,2.55-13.92,3.27v2.87c2.09-1.03,7.13-3.09,13.92-3.09Z"/>
        <path class="cls-18" d="M209.26,179.17v-4.43l.35-.2c.29-.17,7.29-4.19,17.09-4.19,5.76,0,11.27,1.41,16.39,4.18l.36.2v4.43l-1.04-.59c-4.79-2.71-10.02-4.09-15.54-4.09-9.42,0-16.5,4.05-16.57,4.09l-1.05.61ZM210.66,175.55v1.26c2.36-1.16,8.47-3.73,16.22-3.73,5.37,0,10.47,1.25,15.19,3.71v-1.23c-4.81-2.53-9.98-3.81-15.36-3.81-8.21,0-14.53,3.02-16.04,3.81Z"/>
        <rect class="cls-23" x="210.23" y="226.71" width="31.99" height="4.3"/>
        <path class="cls-18" d="M242.92,231.71h-33.38v-5.69h33.38v5.69ZM210.93,230.32h30.6v-2.91h-30.6v2.91Z"/>
        <path class="cls-18" d="M241.45,181.09c-4.93-2.41-10.07-3.62-15.26-3.62-8.86,0-14.73,3.51-14.98,3.66l-.33.2v46.25h30.96v-46.3l-.39-.19ZM214.59,203.8h10.71v19.82h-10.71v-19.82ZM227.45,203.8h10.67v19.82h-10.67v-19.82ZM238.13,201.65h-10.67v-19.99c3.2.15,6.82.92,10.67,2.79v17.2ZM225.3,201.65h-10.71v-17.2s4.25-2.58,10.71-2.81v20.01Z"/>
      </g>
      <g>
        <g>
          <path class="cls-2" d="M156.82,106.35c2.75-.59,5.95-1.28,8.96-1.93-3.73.27-6.81,1.13-8.96,1.93Z"/>
          <path class="cls-2" d="M173,104.72c5.94,3.14,9.76,13.2-.96,16.16-8.52,2.35-14.98,8.78-18.59,13.2v18.99h29.57v-45.16c-3.52-1.72-6.9-2.7-10.03-3.18Z"/>
          <path class="cls-13" d="M172.04,120.88c10.72-2.96,6.89-13.02.96-16.16-2.6-.4-5.02-.45-7.22-.29-3.01.64-6.21,1.34-8.96,1.93-2.15.8-3.37,1.54-3.37,1.54v26.18c3.6-4.41,10.07-10.85,18.59-13.2Z"/>
        </g>
        <polygon class="cls-12" points="184.57 154.05 197.56 164.5 162.76 164.5 152.22 157.09 184.57 154.05"/>
        <path class="cls-6" d="M183.02,103.46c-16.4-8-29.57,0-29.57,0v4.44s13.17-8,29.57,0v-4.44Z"/>
        <path class="cls-18" d="M152.76,109.13v-6.06s.33-.2.33-.2c.25-.15,6.12-3.66,14.98-3.66,5.19,0,10.33,1.22,15.26,3.62l.39.19v5.98l-1-.49c-4.74-2.31-9.67-3.48-14.65-3.48-8.44,0-14.2,3.42-14.26,3.45l-1.06.64ZM168.07,103.64c4.84,0,9.64,1.06,14.26,3.15v-2.9c-4.62-2.19-9.42-3.3-14.26-3.3-7.31,0-12.58,2.55-13.92,3.27v2.87c2.09-1.03,7.13-3.09,13.92-3.09Z"/>
        <path class="cls-23" d="M184.64,101.73c-17-9.21-32.8,0-32.8,0v2.82s16.2-9.41,32.8,0v-2.82Z"/>
        <path class="cls-18" d="M151.14,105.77v-4.43l.35-.2c.29-.17,7.29-4.19,17.09-4.19,5.76,0,11.27,1.4,16.39,4.18l.36.2v4.43l-1.04-.59c-4.79-2.71-10.02-4.09-15.54-4.09-9.42,0-16.5,4.05-16.57,4.09l-1.05.61ZM152.54,102.15v1.26c2.36-1.16,8.47-3.73,16.22-3.73,5.37,0,10.47,1.25,15.19,3.71v-1.23c-4.81-2.53-9.98-3.81-15.36-3.81-8.21,0-14.53,3.02-16.04,3.81Z"/>
        <rect class="cls-23" x="152.11" y="152.79" width="31.99" height="4.3"/>
        <path class="cls-18" d="M184.8,157.79h-33.38v-5.69h33.38v5.69ZM152.8,156.39h30.6v-2.91h-30.6v2.91Z"/>
        <path class="cls-18" d="M183.33,107.27c-4.93-2.41-10.07-3.63-15.26-3.63-8.86,0-14.73,3.51-14.98,3.66l-.33.2v46.25h30.96v-46.3l-.39-.19ZM156.47,129.88h10.71v19.82h-10.71v-19.82ZM169.33,129.88h10.67v19.82h-10.67v-19.82ZM180.01,127.73h-10.67s0-19.99,0-19.99c3.2.15,6.82.92,10.67,2.79v17.2ZM167.18,127.73h-10.71v-17.2s4.25-2.58,10.71-2.81v20.01Z"/>
      </g>
      <g>
        <g>
          <path class="cls-2" d="M214.94,106.35c2.75-.59,5.95-1.28,8.96-1.93-3.73.27-6.81,1.13-8.96,1.93Z"/>
          <path class="cls-2" d="M231.12,104.72c5.94,3.14,9.76,13.2-.96,16.16-8.52,2.35-14.99,8.78-18.59,13.2v18.99h29.57v-45.16c-3.52-1.72-6.9-2.7-10.03-3.18Z"/>
          <path class="cls-13" d="M230.16,120.88c10.72-2.96,6.89-13.02.96-16.16-2.6-.4-5.02-.45-7.22-.29-3.01.64-6.21,1.34-8.96,1.93-2.15.8-3.37,1.54-3.37,1.54v26.18c3.6-4.41,10.07-10.85,18.59-13.2Z"/>
        </g>
        <polygon class="cls-12" points="242.58 154.05 255.57 164.5 220.77 164.5 210.23 157.09 242.58 154.05"/>
        <path class="cls-6" d="M241.15,103.46c-16.4-8-29.57,0-29.57,0v4.44s13.17-8,29.57,0v-4.44Z"/>
        <path class="cls-23" d="M242.76,101.21c-17-9.21-32.8,0-32.8,0v2.82s16.2-9.41,32.8,0v-2.82Z"/>
        <path class="cls-18" d="M210.88,109.13v-6.06s.33-.2.33-.2c.25-.15,6.12-3.66,14.98-3.66,5.19,0,10.33,1.22,15.26,3.62l.39.19v5.98l-1-.49c-4.74-2.31-9.67-3.48-14.65-3.48-8.44,0-14.2,3.42-14.26,3.45l-1.06.64ZM226.19,103.64c4.84,0,9.64,1.06,14.26,3.15v-2.9c-4.62-2.19-9.41-3.3-14.26-3.3-7.31,0-12.58,2.55-13.92,3.27v2.87c2.09-1.03,7.13-3.09,13.92-3.09Z"/>
        <rect class="cls-23" x="210.23" y="152.79" width="31.99" height="4.3"/>
        <path class="cls-18" d="M242.92,157.79h-33.38v-5.69h33.38v5.69ZM210.93,156.39h30.6v-2.91h-30.6v2.91Z"/>
        <path class="cls-18" d="M241.45,107.27c-4.93-2.41-10.07-3.63-15.26-3.63-8.86,0-14.73,3.51-14.98,3.66l-.33.2v46.25h30.96v-46.3l-.39-.19ZM214.59,129.88h10.71v19.82h-10.71v-19.82ZM227.45,129.88h10.67v19.82h-10.67v-19.82ZM238.13,127.73h-10.67s0-19.99,0-19.99c3.2.15,6.82.92,10.67,2.79v17.2ZM225.3,127.73h-10.71v-17.2s4.25-2.58,10.71-2.81v20.01Z"/>
        <path class="cls-18" d="M209.26,105.24v-4.43l.35-.2c.29-.17,7.29-4.19,17.09-4.19,5.76,0,11.27,1.41,16.39,4.18l.36.2v4.43l-1.04-.59c-4.79-2.71-10.02-4.09-15.54-4.09-9.42,0-16.5,4.05-16.57,4.09l-1.05.61ZM210.66,101.63v1.26c2.36-1.16,8.47-3.73,16.22-3.73,5.37,0,10.47,1.25,15.19,3.71v-1.23c-4.81-2.53-9.98-3.81-15.36-3.81-8.21,0-14.53,3.02-16.04,3.81Z"/>
      </g>
      <g>
        <g>
          <path class="cls-2" d="M269.87,179.83c2.75-.59,5.95-1.28,8.95-1.93-3.73.27-6.81,1.13-8.95,1.93Z"/>
          <path class="cls-2" d="M286.05,178.19c5.94,3.14,9.76,13.2-.96,16.16-8.52,2.35-14.99,8.79-18.59,13.2v18.99h29.57v-45.16c-3.52-1.72-6.9-2.7-10.03-3.17Z"/>
          <path class="cls-13" d="M285.1,194.35c10.71-2.96,6.89-13.02.96-16.16-2.6-.4-5.02-.45-7.22-.29-3.01.64-6.21,1.34-8.95,1.93-2.15.8-3.37,1.54-3.37,1.54v26.18c3.6-4.41,10.07-10.85,18.59-13.2Z"/>
        </g>
        <polygon class="cls-12" points="297.51 227.76 310.5 238.2 275.7 238.2 265.16 230.8 297.51 227.76"/>
        <path class="cls-6" d="M296.08,177.38c-16.4-8-29.57,0-29.57,0v4.44s13.17-8,29.57,0v-4.44Z"/>
        <path class="cls-23" d="M297.69,175.13c-17-9.21-32.8,0-32.8,0v2.82s16.2-9.41,32.8,0v-2.82Z"/>
        <path class="cls-18" d="M265.81,183.05v-6.06l.33-.2c.25-.15,6.12-3.66,14.98-3.66,5.19,0,10.33,1.22,15.26,3.62l.39.19v5.98l-1-.49c-4.74-2.31-9.67-3.48-14.65-3.48-8.44,0-14.2,3.42-14.26,3.45l-1.06.64ZM281.12,177.57c4.84,0,9.63,1.06,14.26,3.15v-2.9c-4.62-2.19-9.41-3.3-14.26-3.3-7.31,0-12.58,2.55-13.92,3.27v2.87c2.09-1.03,7.13-3.09,13.92-3.09Z"/>
        <path class="cls-18" d="M264.2,179.17v-4.43l.34-.2c.29-.17,7.29-4.19,17.09-4.19,5.76,0,11.27,1.41,16.39,4.18l.36.2v4.43l-1.04-.59c-4.79-2.71-10.02-4.09-15.54-4.09-9.42,0-16.5,4.05-16.57,4.09l-1.04.61ZM265.59,175.55v1.26c2.36-1.16,8.47-3.73,16.22-3.73,5.37,0,10.47,1.25,15.19,3.71v-1.23c-4.81-2.53-9.98-3.81-15.37-3.81-8.21,0-14.53,3.02-16.04,3.81Z"/>
        <rect class="cls-23" x="265.16" y="226.71" width="31.99" height="4.3"/>
        <path class="cls-18" d="M297.85,231.71h-33.38v-5.69h33.38v5.69ZM265.86,230.32h30.6v-2.91h-30.6v2.91Z"/>
        <path class="cls-18" d="M296.38,181.09c-4.93-2.41-10.07-3.62-15.26-3.62-8.86,0-14.73,3.51-14.98,3.66l-.33.2v46.25h30.96v-46.3l-.39-.19ZM269.52,203.8h10.71v19.82h-10.71v-19.82ZM282.38,203.8h10.67v19.82h-10.67v-19.82ZM293.06,201.65h-10.67v-19.99c3.2.15,6.82.92,10.67,2.79v17.2ZM280.23,201.65h-10.71v-17.2s4.25-2.58,10.71-2.81v20.01Z"/>
      </g>
      <g>
        <g>
          <path class="cls-2" d="M156.82,253.83c2.75-.59,5.95-1.28,8.96-1.93-3.73.26-6.81,1.13-8.96,1.93Z"/>
          <path class="cls-2" d="M173,252.2c5.94,3.14,9.76,13.2-.96,16.16-8.52,2.35-14.98,8.79-18.59,13.2v18.99h29.57v-45.17c-3.52-1.72-6.9-2.7-10.03-3.17Z"/>
          <path class="cls-13" d="M172.04,268.35c10.72-2.96,6.89-13.02.96-16.16-2.6-.4-5.02-.45-7.22-.29-3.01.64-6.21,1.33-8.96,1.93-2.15.8-3.37,1.54-3.37,1.54v26.18c3.6-4.41,10.07-10.85,18.59-13.2Z"/>
        </g>
        <polygon class="cls-12" points="184.57 301.76 197.56 312.2 162.76 312.2 152.22 304.8 184.57 301.76"/>
        <path class="cls-6" d="M183.02,251.38c-16.4-8-29.57,0-29.57,0v4.43s13.17-8,29.57,0v-4.43Z"/>
        <path class="cls-23" d="M184.64,249.13c-17-9.21-32.8,0-32.8,0v2.82s16.2-9.41,32.8,0v-2.82Z"/>
        <rect class="cls-23" x="152.11" y="300.71" width="31.99" height="4.3"/>
        <path class="cls-18" d="M184.8,305.71h-33.38v-5.69h33.38v5.69ZM152.8,304.32h30.6v-2.91h-30.6v2.91Z"/>
        <path class="cls-18" d="M152.76,257.05v-6.06s.33-.2.33-.2c.25-.15,6.12-3.66,14.98-3.66,5.19,0,10.33,1.22,15.26,3.62l.39.19v5.98l-1-.49c-4.74-2.31-9.67-3.48-14.65-3.48-8.44,0-14.2,3.42-14.26,3.45l-1.06.64ZM168.07,251.57c4.84,0,9.64,1.06,14.26,3.15v-2.9c-4.62-2.19-9.42-3.3-14.26-3.3-7.31,0-12.58,2.55-13.92,3.27v2.87c2.09-1.03,7.13-3.09,13.92-3.09Z"/>
        <path class="cls-18" d="M151.14,253.17v-4.43l.35-.2c.29-.17,7.29-4.19,17.09-4.19,5.76,0,11.27,1.41,16.39,4.18l.36.2v4.43l-1.04-.59c-4.79-2.71-10.02-4.09-15.54-4.09-9.42,0-16.5,4.05-16.57,4.09l-1.05.61ZM152.54,249.55v1.26c2.36-1.16,8.47-3.73,16.22-3.73,5.37,0,10.47,1.25,15.19,3.71v-1.23c-4.81-2.53-9.98-3.81-15.36-3.81-8.21,0-14.53,3.02-16.04,3.81Z"/>
        <path class="cls-18" d="M183.33,255.09c-4.93-2.4-10.07-3.62-15.26-3.62-8.86,0-14.73,3.51-14.98,3.66l-.33.2v46.25h30.96v-46.3l-.39-.19ZM156.47,277.8h10.71v19.82h-10.71v-19.82ZM169.33,277.8h10.67v19.82h-10.67v-19.82ZM180.01,275.65h-10.67v-19.99c3.2.15,6.82.92,10.67,2.79v17.2ZM167.18,275.65h-10.71v-17.2s4.25-2.58,10.71-2.81v20.01Z"/>
      </g>
      <g>
        <g>
          <path class="cls-2" d="M214.94,253.83c2.75-.59,5.95-1.28,8.96-1.93-3.73.26-6.81,1.13-8.96,1.93Z"/>
          <path class="cls-2" d="M231.12,252.2c5.94,3.14,9.76,13.2-.96,16.16-8.52,2.35-14.99,8.79-18.59,13.2v18.99h29.57v-45.17c-3.52-1.72-6.9-2.7-10.03-3.17Z"/>
          <path class="cls-13" d="M230.16,268.35c10.72-2.96,6.89-13.02.96-16.16-2.6-.4-5.02-.45-7.22-.29-3.01.64-6.21,1.33-8.96,1.93-2.15.8-3.37,1.54-3.37,1.54v26.18c3.6-4.41,10.07-10.85,18.59-13.2Z"/>
        </g>
        <polygon class="cls-12" points="242.58 301.76 255.57 312.2 220.77 312.2 210.23 304.8 242.58 301.76"/>
        <path class="cls-6" d="M241.15,251.38c-16.4-8-29.57,0-29.57,0v4.43s13.17-8,29.57,0v-4.43Z"/>
        <path class="cls-23" d="M242.76,249.13c-17-9.21-32.8,0-32.8,0v2.82s16.2-9.41,32.8,0v-2.82Z"/>
        <path class="cls-18" d="M210.88,257.05v-6.06s.33-.2.33-.2c.25-.15,6.12-3.66,14.98-3.66,5.19,0,10.33,1.22,15.26,3.62l.39.19v5.98l-1-.49c-4.74-2.31-9.67-3.48-14.65-3.48-8.44,0-14.2,3.42-14.26,3.45l-1.06.64ZM226.19,251.57c4.84,0,9.64,1.06,14.26,3.15v-2.9c-4.62-2.19-9.41-3.3-14.26-3.3-7.31,0-12.58,2.55-13.92,3.27v2.87c2.09-1.03,7.13-3.09,13.92-3.09Z"/>
        <path class="cls-18" d="M209.26,253.17v-4.43l.35-.2c.29-.17,7.29-4.19,17.09-4.19,5.76,0,11.27,1.41,16.39,4.18l.36.2v4.43l-1.04-.59c-4.79-2.71-10.02-4.09-15.54-4.09-9.42,0-16.5,4.05-16.57,4.09l-1.05.61ZM210.66,249.55v1.26c2.36-1.16,8.47-3.73,16.22-3.73,5.37,0,10.47,1.25,15.19,3.71v-1.23c-4.81-2.53-9.98-3.81-15.36-3.81-8.21,0-14.53,3.02-16.04,3.81Z"/>
        <rect class="cls-23" x="210.23" y="300.71" width="31.99" height="4.3"/>
        <path class="cls-18" d="M242.92,305.71h-33.38v-5.69h33.38v5.69ZM210.93,304.32h30.6v-2.91h-30.6v2.91Z"/>
        <path class="cls-18" d="M241.45,255.09c-4.93-2.4-10.07-3.62-15.26-3.62-8.86,0-14.73,3.51-14.98,3.66l-.33.2v46.25h30.96v-46.3l-.39-.19ZM214.59,277.8h10.71v19.82h-10.71v-19.82ZM227.45,277.8h10.67v19.82h-10.67v-19.82ZM238.13,275.65h-10.67v-19.99c3.2.15,6.82.92,10.67,2.79v17.2ZM225.3,275.65h-10.71v-17.2s4.25-2.58,10.71-2.81v20.01Z"/>
      </g>
      <g>
        <g>
          <path class="cls-2" d="M269.87,253.83c2.75-.59,5.95-1.28,8.95-1.93-3.73.26-6.81,1.13-8.95,1.93Z"/>
          <path class="cls-2" d="M286.05,252.2c5.94,3.14,9.76,13.2-.96,16.16-8.52,2.35-14.99,8.79-18.59,13.2v18.99h29.57v-45.17c-3.52-1.72-6.9-2.7-10.03-3.17Z"/>
          <path class="cls-13" d="M285.1,268.35c10.71-2.96,6.89-13.02.96-16.16-2.6-.4-5.02-.45-7.22-.29-3.01.64-6.21,1.33-8.95,1.93-2.15.8-3.37,1.54-3.37,1.54v26.18c3.6-4.41,10.07-10.85,18.59-13.2Z"/>
        </g>
        <polygon class="cls-12" points="297.51 301.76 310.5 312.2 275.7 312.2 265.16 304.8 297.51 301.76"/>
        <path class="cls-6" d="M296.08,251.38c-16.4-8-29.57,0-29.57,0v4.43s13.17-8,29.57,0v-4.43Z"/>
        <path class="cls-23" d="M297.69,249.13c-17-9.21-32.8,0-32.8,0v2.82s16.2-9.41,32.8,0v-2.82Z"/>
        <path class="cls-18" d="M265.81,257.05v-6.06l.33-.2c.25-.15,6.12-3.66,14.98-3.66,5.19,0,10.33,1.22,15.26,3.62l.39.19v5.98l-1-.49c-4.74-2.31-9.67-3.48-14.65-3.48-8.44,0-14.2,3.42-14.26,3.45l-1.06.64ZM281.12,251.57c4.84,0,9.63,1.06,14.26,3.15v-2.9c-4.62-2.19-9.41-3.3-14.26-3.3-7.31,0-12.58,2.55-13.92,3.27v2.87c2.09-1.03,7.13-3.09,13.92-3.09Z"/>
        <path class="cls-18" d="M264.2,253.17v-4.43l.34-.2c.29-.17,7.29-4.19,17.09-4.19,5.76,0,11.27,1.41,16.39,4.18l.36.2v4.43l-1.04-.59c-4.79-2.71-10.02-4.09-15.54-4.09-9.42,0-16.5,4.05-16.57,4.09l-1.04.61ZM265.59,249.55v1.26c2.36-1.16,8.47-3.73,16.22-3.73,5.37,0,10.47,1.25,15.19,3.71v-1.23c-4.81-2.53-9.98-3.81-15.37-3.81-8.21,0-14.53,3.02-16.04,3.81Z"/>
        <rect class="cls-23" x="265.16" y="300.71" width="31.99" height="4.3"/>
        <path class="cls-18" d="M297.85,305.71h-33.38v-5.69h33.38v5.69ZM265.86,304.32h30.6v-2.91h-30.6v2.91Z"/>
        <path class="cls-18" d="M296.38,255.09c-4.93-2.4-10.07-3.62-15.26-3.62-8.86,0-14.73,3.51-14.98,3.66l-.33.2v46.25h30.96v-46.3l-.39-.19ZM269.52,277.8h10.71v19.82h-10.71v-19.82ZM282.38,277.8h10.67v19.82h-10.67v-19.82ZM293.06,275.65h-10.67v-19.99c3.2.15,6.82.92,10.67,2.79v17.2ZM280.23,275.65h-10.71v-17.2s4.25-2.58,10.71-2.81v20.01Z"/>
      </g>
      <g>
        <g>
          <path class="cls-2" d="M156.82,332.83c2.75-.59,5.95-1.28,8.96-1.93-3.73.26-6.81,1.13-8.96,1.93Z"/>
          <path class="cls-2" d="M173,331.2c5.94,3.14,9.76,13.2-.96,16.16-8.52,2.35-14.98,8.79-18.59,13.2v18.99h29.57v-45.17c-3.52-1.72-6.9-2.7-10.03-3.17Z"/>
          <path class="cls-13" d="M172.04,347.35c10.72-2.96,6.89-13.02.96-16.16-2.6-.4-5.02-.45-7.22-.29-3.01.64-6.21,1.33-8.96,1.93-2.15.8-3.37,1.54-3.37,1.54v26.18c3.6-4.41,10.07-10.85,18.59-13.2Z"/>
        </g>
        <polygon class="cls-12" points="184.57 380.76 197.56 391.2 162.76 391.2 152.22 383.8 184.57 380.76"/>
        <path class="cls-6" d="M183.02,330.38c-16.4-8-29.57,0-29.57,0v4.43s13.17-8,29.57,0v-4.43Z"/>
        <path class="cls-23" d="M184.64,328.13c-17-9.21-32.8,0-32.8,0v2.82s16.2-9.41,32.8,0v-2.82Z"/>
        <rect class="cls-23" x="152.11" y="379.71" width="31.99" height="4.3"/>
        <path class="cls-18" d="M184.8,384.71h-33.38v-5.69h33.38v5.69ZM152.8,383.32h30.6v-2.91h-30.6v2.91Z"/>
        <path class="cls-18" d="M152.76,336.05v-6.06s.33-.2.33-.2c.25-.15,6.12-3.66,14.98-3.66,5.19,0,10.33,1.22,15.26,3.62l.39.19v5.98l-1-.49c-4.74-2.31-9.67-3.48-14.65-3.48-8.44,0-14.2,3.42-14.26,3.45l-1.06.64ZM168.07,330.57c4.84,0,9.64,1.06,14.26,3.15v-2.9c-4.62-2.19-9.42-3.3-14.26-3.3-7.31,0-12.58,2.55-13.92,3.27v2.87c2.09-1.03,7.13-3.09,13.92-3.09Z"/>
        <path class="cls-18" d="M151.14,332.17v-4.43l.35-.2c.29-.17,7.29-4.19,17.09-4.19,5.76,0,11.27,1.41,16.39,4.18l.36.2v4.43l-1.04-.59c-4.79-2.71-10.02-4.09-15.54-4.09-9.42,0-16.5,4.05-16.57,4.09l-1.05.61ZM152.54,328.55v1.26c2.36-1.16,8.47-3.73,16.22-3.73,5.37,0,10.47,1.25,15.19,3.71v-1.23c-4.81-2.53-9.98-3.81-15.36-3.81-8.21,0-14.53,3.02-16.04,3.81Z"/>
        <path class="cls-18" d="M183.33,334.09c-4.93-2.4-10.07-3.62-15.26-3.62-8.86,0-14.73,3.51-14.98,3.66l-.33.2v46.25h30.96v-46.3l-.39-.19ZM156.47,356.8h10.71v19.82h-10.71v-19.82ZM169.33,356.8h10.67v19.82h-10.67v-19.82ZM180.01,354.65h-10.67v-19.99c3.2.15,6.82.92,10.67,2.79v17.2ZM167.18,354.65h-10.71v-17.2s4.25-2.58,10.71-2.81v20.01Z"/>
      </g>
      <g>
        <g>
          <path class="cls-2" d="M269.87,332.83c2.75-.59,5.95-1.28,8.95-1.93-3.73.26-6.81,1.13-8.95,1.93Z"/>
          <path class="cls-2" d="M286.05,331.2c5.94,3.14,9.76,13.2-.96,16.16-8.52,2.35-14.99,8.79-18.59,13.2v18.99h29.57v-45.17c-3.52-1.72-6.9-2.7-10.03-3.17Z"/>
          <path class="cls-13" d="M285.1,347.35c10.71-2.96,6.89-13.02.96-16.16-2.6-.4-5.02-.45-7.22-.29-3.01.64-6.21,1.33-8.95,1.93-2.15.8-3.37,1.54-3.37,1.54v26.18c3.6-4.41,10.07-10.85,18.59-13.2Z"/>
        </g>
        <polygon class="cls-12" points="297.51 380.76 310.5 391.2 275.7 391.2 265.16 383.8 297.51 380.76"/>
        <path class="cls-6" d="M296.08,330.38c-16.4-8-29.57,0-29.57,0v4.43s13.17-8,29.57,0v-4.43Z"/>
        <path class="cls-23" d="M297.69,328.13c-17-9.21-32.8,0-32.8,0v2.82s16.2-9.41,32.8,0v-2.82Z"/>
        <path class="cls-18" d="M265.81,336.05v-6.06l.33-.2c.25-.15,6.12-3.66,14.98-3.66,5.19,0,10.33,1.22,15.26,3.62l.39.19v5.98l-1-.49c-4.74-2.31-9.67-3.48-14.65-3.48-8.44,0-14.2,3.42-14.26,3.45l-1.06.64ZM281.12,330.57c4.84,0,9.63,1.06,14.26,3.15v-2.9c-4.62-2.19-9.41-3.3-14.26-3.3-7.31,0-12.58,2.55-13.92,3.27v2.87c2.09-1.03,7.13-3.09,13.92-3.09Z"/>
        <path class="cls-18" d="M264.2,332.17v-4.43l.34-.2c.29-.17,7.29-4.19,17.09-4.19,5.76,0,11.27,1.41,16.39,4.18l.36.2v4.43l-1.04-.59c-4.79-2.71-10.02-4.09-15.54-4.09-9.42,0-16.5,4.05-16.57,4.09l-1.04.61ZM265.59,328.55v1.26c2.36-1.16,8.47-3.73,16.22-3.73,5.37,0,10.47,1.25,15.19,3.71v-1.23c-4.81-2.53-9.98-3.81-15.37-3.81-8.21,0-14.53,3.02-16.04,3.81Z"/>
        <rect class="cls-23" x="265.16" y="379.71" width="31.99" height="4.3"/>
        <path class="cls-18" d="M297.85,384.71h-33.38v-5.69h33.38v5.69ZM265.86,383.32h30.6v-2.91h-30.6v2.91Z"/>
        <path class="cls-18" d="M296.38,334.09c-4.93-2.4-10.07-3.62-15.26-3.62-8.86,0-14.73,3.51-14.98,3.66l-.33.2v46.25h30.96v-46.3l-.39-.19ZM269.52,356.8h10.71v19.82h-10.71v-19.82ZM282.38,356.8h10.67v19.82h-10.67v-19.82ZM293.06,354.65h-10.67v-19.99c3.2.15,6.82.92,10.67,2.79v17.2ZM280.23,354.65h-10.71v-17.2s4.25-2.58,10.71-2.81v20.01Z"/>
      </g>
      <g>
        <g>
          <path class="cls-2" d="M269.87,106.35c2.75-.59,5.95-1.28,8.95-1.93-3.73.27-6.81,1.13-8.95,1.93Z"/>
          <path class="cls-2" d="M286.05,104.72c5.94,3.14,9.76,13.2-.96,16.16-8.52,2.35-14.99,8.78-18.59,13.2v18.99h29.57v-45.16c-3.52-1.72-6.9-2.7-10.03-3.18Z"/>
          <path class="cls-13" d="M285.1,120.88c10.71-2.96,6.89-13.02.96-16.16-2.6-.4-5.02-.45-7.22-.29-3.01.64-6.21,1.34-8.95,1.93-2.15.8-3.37,1.54-3.37,1.54v26.18c3.6-4.41,10.07-10.85,18.59-13.2Z"/>
        </g>
        <polygon class="cls-12" points="297.51 154.05 310.5 164.5 275.7 164.5 265.16 157.09 297.51 154.05"/>
        <path class="cls-6" d="M296.08,103.46c-16.4-8-29.57,0-29.57,0v4.44s13.17-8,29.57,0v-4.44Z"/>
        <path class="cls-23" d="M297.69,101.21c-17-9.21-32.8,0-32.8,0v2.82s16.2-9.41,32.8,0v-2.82Z"/>
        <path class="cls-18" d="M265.81,109.13v-6.06l.33-.2c.25-.15,6.12-3.66,14.98-3.66,5.19,0,10.33,1.22,15.26,3.62l.39.19v5.98l-1-.49c-4.74-2.31-9.67-3.48-14.65-3.48-8.44,0-14.2,3.42-14.26,3.45l-1.06.64ZM281.12,103.64c4.84,0,9.63,1.06,14.26,3.15v-2.9c-4.62-2.19-9.41-3.3-14.26-3.3-7.31,0-12.58,2.55-13.92,3.27v2.87c2.09-1.03,7.13-3.09,13.92-3.09Z"/>
        <rect class="cls-23" x="265.16" y="152.79" width="31.99" height="4.3"/>
        <path class="cls-18" d="M297.85,157.79h-33.38v-5.69h33.38v5.69ZM265.86,156.39h30.6v-2.91h-30.6v2.91Z"/>
        <path class="cls-18" d="M296.38,107.27c-4.93-2.41-10.07-3.63-15.26-3.63-8.86,0-14.73,3.51-14.98,3.66l-.33.2v46.25h30.96v-46.3l-.39-.19ZM269.52,129.88h10.71v19.82h-10.71v-19.82ZM282.38,129.88h10.67v19.82h-10.67v-19.82ZM293.06,127.73h-10.67s0-19.99,0-19.99c3.2.15,6.82.92,10.67,2.79v17.2ZM280.23,127.73h-10.71v-17.2s4.25-2.58,10.71-2.81v20.01Z"/>
        <path class="cls-18" d="M264.2,105.24v-4.43l.34-.2c.29-.17,7.29-4.19,17.09-4.19,5.76,0,11.27,1.41,16.39,4.18l.36.2v4.43l-1.04-.59c-4.79-2.71-10.02-4.09-15.54-4.09-9.42,0-16.5,4.05-16.57,4.09l-1.04.61ZM265.59,101.63v1.26c2.36-1.16,8.47-3.73,16.22-3.73,5.37,0,10.47,1.25,15.19,3.71v-1.23c-4.81-2.53-9.98-3.81-15.37-3.81-8.21,0-14.53,3.02-16.04,3.81Z"/>
      </g>
      <g>
        <path class="cls-18" d="M328.59,105.89h-8.9v-9.33h8.9v9.33ZM321.69,103.89h4.9v-5.33h-4.9v5.33Z"/>
        <path class="cls-18" d="M328.12,123.22h-13.92v-9.33h13.92v9.33ZM316.21,121.22h9.92v-5.33h-9.92v5.33Z"/>
        <path class="cls-18" d="M328.59,146.89h-8.9v-9.33h8.9v9.33ZM321.69,144.89h4.9v-5.33h-4.9v5.33Z"/>
        <path class="cls-18" d="M328.12,164.22h-13.92v-9.33h13.92v9.33ZM316.21,162.22h9.92v-5.33h-9.92v5.33Z"/>
        <path class="cls-18" d="M328.59,187.89h-8.9v-9.33h8.9v9.33ZM321.69,185.89h4.9v-5.33h-4.9v5.33Z"/>
        <path class="cls-18" d="M328.12,205.22h-13.92v-9.33h13.92v9.33ZM316.21,203.22h9.92v-5.33h-9.92v5.33Z"/>
        <path class="cls-18" d="M328.59,228.88h-8.9v-9.33h8.9v9.33ZM321.69,226.88h4.9v-5.33h-4.9v5.33Z"/>
        <path class="cls-18" d="M328.12,246.22h-13.92v-9.33h13.92v9.33ZM316.21,244.22h9.92v-5.33h-9.92v5.33Z"/>
        <path class="cls-18" d="M328.59,269.88h-8.9v-9.33h8.9v9.33ZM321.69,267.88h4.9v-5.33h-4.9v5.33Z"/>
        <path class="cls-18" d="M328.12,287.22h-13.92v-9.33h13.92v9.33ZM316.21,285.22h9.92v-5.33h-9.92v5.33Z"/>
        <path class="cls-18" d="M328.59,310.88h-8.9v-9.33h8.9v9.33ZM321.69,308.88h4.9v-5.33h-4.9v5.33Z"/>
        <path class="cls-18" d="M328.12,328.21h-13.92v-9.33h13.92v9.33ZM316.21,326.21h9.92v-5.33h-9.92v5.33Z"/>
        <path class="cls-18" d="M328.59,351.88h-8.9v-9.33h8.9v9.33ZM321.69,349.88h4.9v-5.33h-4.9v5.33Z"/>
        <path class="cls-18" d="M328.12,369.21h-13.92v-9.33h13.92v9.33ZM316.21,367.21h9.92v-5.33h-9.92v5.33Z"/>
      </g>
      <g>
        <path class="cls-18" d="M128.95,105.89h-8.9v-9.33h8.9v9.33ZM122.05,103.89h4.9v-5.33h-4.9v5.33Z"/>
        <path class="cls-18" d="M134.43,123.22h-13.92v-9.33h13.92v9.33ZM122.52,121.22h9.92v-5.33h-9.92v5.33Z"/>
        <path class="cls-18" d="M128.95,146.89h-8.9v-9.33h8.9v9.33ZM122.05,144.89h4.9v-5.33h-4.9v5.33Z"/>
        <path class="cls-18" d="M134.43,164.22h-13.92v-9.33h13.92v9.33ZM122.52,162.22h9.92v-5.33h-9.92v5.33Z"/>
        <path class="cls-18" d="M128.95,187.89h-8.9v-9.33h8.9v9.33ZM122.05,185.89h4.9v-5.33h-4.9v5.33Z"/>
        <path class="cls-18" d="M134.43,205.22h-13.92v-9.33h13.92v9.33ZM122.52,203.22h9.92v-5.33h-9.92v5.33Z"/>
        <path class="cls-18" d="M128.95,228.88h-8.9v-9.33h8.9v9.33ZM122.05,226.88h4.9v-5.33h-4.9v5.33Z"/>
        <path class="cls-18" d="M134.43,246.22h-13.92v-9.33h13.92v9.33ZM122.52,244.22h9.92v-5.33h-9.92v5.33Z"/>
        <path class="cls-18" d="M128.95,269.88h-8.9v-9.33h8.9v9.33ZM122.05,267.88h4.9v-5.33h-4.9v5.33Z"/>
        <path class="cls-18" d="M134.43,287.22h-13.92v-9.33h13.92v9.33ZM122.52,285.22h9.92v-5.33h-9.92v5.33Z"/>
        <path class="cls-18" d="M128.95,310.88h-8.9v-9.33h8.9v9.33ZM122.05,308.88h4.9v-5.33h-4.9v5.33Z"/>
        <path class="cls-18" d="M134.43,328.21h-13.92v-9.33h13.92v9.33ZM122.52,326.21h9.92v-5.33h-9.92v5.33Z"/>
        <path class="cls-18" d="M128.95,351.88h-8.9v-9.33h8.9v9.33ZM122.05,349.88h4.9v-5.33h-4.9v5.33Z"/>
        <path class="cls-18" d="M134.43,369.21h-13.92v-9.33h13.92v9.33ZM122.52,367.21h9.92v-5.33h-9.92v5.33Z"/>
      </g>
      <path class="cls-18" d="M328.72,405.56H119.54V74.01h209.18v331.55ZM121.54,403.56h205.18V76.01H121.54v327.55Z"/>
      <g>
        <rect class="cls-18" x="112.3" y="34.67" width="45.72" height="4" transform="translate(53.07 150.13) rotate(-69.29)"/>
        <rect class="cls-18" x="145.28" y="13.81" width="4" height="45.72" transform="translate(-3.45 54.44) rotate(-20.7)"/>
        <rect class="cls-18" x="274.62" y="34.67" width="45.72" height="4" transform="translate(158.03 301.98) rotate(-69.3)"/>
        <rect class="cls-18" x="307.6" y="13.81" width="4" height="45.72" transform="translate(7.03 111.82) rotate(-20.7)"/>
        <path class="cls-1" d="M311.59,34.22c0,7.06-4.48,12.79-10,12.79h-158.63c-5.52,0-10-5.73-10-12.79V12.79c0-7.07,4.48-12.79,10-12.79h158.63c5.52,0,10,5.73,10,12.79v21.43Z"/>
        <path class="cls-23" d="M308.81,32.8c0,6.13-3.89,11.1-8.68,11.1h-154.7c-4.79,0-8.68-4.97-8.68-11.1V14.2c0-6.13,3.89-11.1,8.68-11.1h154.7c4.79,0,8.68,4.97,8.68,11.1v18.6Z"/>
        <text class="cls-5" transform="translate(161.3 36.65)"><tspan x="0" y="0">H</tspan><tspan class="cls-21" x="28.14" y="0">O</tspan><tspan x="57.47" y="0">TEL</tspan></text>
      </g>
      <g>
        <g>
          <path class="cls-23" d="M204.63,354.42h16.16v32.13c2.23-1.68,4.46-3.55,6.64-5.62v-26.51h16.16v3.66c2.55-5.72,4.54-12.17,5.74-19.46v-7.66c-27.78-13.54-50.09,0-50.09,0v67.27c1.62-.59,3.44-1.31,5.39-2.19v-41.62Z"/>
          <path class="cls-11" d="M243.58,358.07v39.62h-16.16v-16.77c-2.18,2.07-4.41,3.94-6.64,5.62v11.15h-16.16v-1.66c-1.95.87-3.77,1.59-5.39,2.19v6.14h50.09v-65.75c-1.2,7.28-3.2,13.74-5.74,19.46Z"/>
          <path class="cls-15" d="M218.04,394.38h-9.92c-1.21.6-2.38,1.15-3.5,1.66v1.66h16.16v-11.15c-.91.69-1.83,1.35-2.74,1.98v5.86Z"/>
          <path class="cls-14" d="M204.63,354.42v41.62c1.12-.5,2.29-1.05,3.5-1.66h-.9v-15.89c1.02,1.9,3.03,3.19,5.34,3.19,2.43,0,4.52-1.43,5.48-3.49v10.33c.91-.63,1.83-1.29,2.74-1.98v-32.13h-16.16ZM212.56,369.56c-2.31,0-4.31,1.29-5.34,3.19v-15.45h10.82v15.75c-.97-2.06-3.06-3.49-5.48-3.49Z"/>
          <path class="cls-14" d="M227.42,354.42v26.51c1.38-1.31,2.74-2.71,4.07-4.19-.1-.36-.18-.73-.18-1.12,0-2.23,1.81-4.04,4.04-4.04.11,0,.22.02.33.03.45-.6.89-1.22,1.33-1.85-.48-.12-.99-.2-1.51-.2-2.31,0-4.32,1.29-5.34,3.19v-15.45h10.82v6.03c.92-1.68,1.78-3.43,2.6-5.26v-3.66h-16.16Z"/>
          <path class="cls-15" d="M240.98,373.05c-.76-1.62-2.21-2.83-3.97-3.29-.44.63-.88,1.25-1.33,1.85,2.07.17,3.71,1.89,3.71,4.01,0,2.23-1.81,4.04-4.04,4.04-1.84,0-3.38-1.24-3.86-2.92-1.33,1.48-2.69,2.87-4.07,4.19v16.77h16.16v-39.62c-.81,1.83-1.68,3.58-2.6,5.26v9.72ZM240.98,394.38h-10.82v-15.89c1.02,1.9,3.03,3.19,5.34,3.19,2.43,0,4.51-1.43,5.48-3.49v16.19Z"/>
          <path class="cls-11" d="M218.04,388.52c-3.42,2.36-6.79,4.29-9.92,5.86h9.92v-5.86Z"/>
          <path class="cls-23" d="M218.04,378.19c-.97,2.06-3.06,3.49-5.48,3.49s-4.31-1.29-5.34-3.19v15.89h.9c3.13-1.57,6.5-3.51,9.92-5.86v-10.33Z"/>
          <path class="cls-23" d="M207.22,357.3v15.45c1.02-1.9,3.03-3.19,5.34-3.19,2.43,0,4.52,1.43,5.48,3.49v-15.75h-10.82Z"/>
          <path class="cls-11" d="M235.5,381.69c-2.31,0-4.32-1.29-5.34-3.19v15.89h10.82v-16.19c-.97,2.06-3.06,3.49-5.48,3.49Z"/>
          <path class="cls-23" d="M240.98,357.3h-10.82v15.45c1.02-1.9,3.03-3.19,5.34-3.19.52,0,1.03.08,1.51.2,1.4-2.02,2.73-4.16,3.97-6.44v-6.03Z"/>
          <path class="cls-11" d="M240.98,373.05v-9.72c-1.24,2.28-2.57,4.42-3.97,6.44,1.76.45,3.21,1.67,3.97,3.29Z"/>
          <path class="cls-11" d="M235.36,379.66c2.23,0,4.04-1.81,4.04-4.04s-1.64-3.84-3.71-4.01c-1.35,1.81-2.75,3.52-4.19,5.12.49,1.68,2.02,2.92,3.86,2.92Z"/>
          <path class="cls-23" d="M235.36,371.58c-2.23,0-4.04,1.81-4.04,4.04,0,.39.07.76.18,1.12,1.44-1.61,2.84-3.31,4.19-5.12-.11,0-.22-.03-.33-.03Z"/>
        </g>
        <path class="cls-14" d="M204.58,336.43v14.47h16.29v-19.83s-10.31-2.47-16.29,5.36Z"/>
        <path class="cls-23" d="M206.91,337.68v10.34h11.64v-14.17s-7.36-1.77-11.64,3.83Z"/>
        <path class="cls-14" d="M243.59,336.43v14.47h-16.29v-19.83s10.31-2.47,16.29,5.36Z"/>
        <path class="cls-18" d="M221.53,398.44h-17.64v-44.76h17.64v44.76ZM205.37,396.96h14.68v-41.8h-14.68v41.8Z"/>
        <path class="cls-18" d="M244.32,398.44h-17.64v-44.76h17.64v44.76ZM228.16,396.96h14.68v-41.8h-14.68v41.8Z"/>
        <path class="cls-18" d="M221.61,351.64h-17.77v-15.46l.15-.2c3.8-4.98,9.22-6.02,13.09-6.02,2.3,0,3.89.38,3.96.39l.57.14v21.16ZM205.32,350.16h14.81v-18.48c-.62-.1-1.71-.24-3.04-.24-3.49,0-8.34.92-11.76,5.24v13.48Z"/>
        <path class="cls-18" d="M244.33,351.64h-17.77v-21.16l.57-.14c.07-.02,1.66-.39,3.96-.39,3.88,0,9.29,1.04,13.09,6.02l.15.2v15.46ZM228.05,350.16h14.81v-13.48c-3.42-4.33-8.27-5.24-11.76-5.24-1.34,0-2.42.14-3.04.24v18.48Z"/>
        <path class="cls-23" d="M241.27,337.68v10.34h-11.64v-14.17s7.36-1.77,11.64,3.83Z"/>
        <path class="cls-23" d="M216.46,375.62c0,2.23-1.81,4.04-4.04,4.04s-4.04-1.81-4.04-4.04,1.81-4.04,4.04-4.04,4.04,1.81,4.04,4.04Z"/>
        <path class="cls-18" d="M219.28,348.76h-13.12v-11.33l.15-.2c2.77-3.62,6.7-4.38,9.52-4.38,1.67,0,2.83.27,2.88.29l.57.14v15.49ZM207.65,347.28h10.15v-12.81c-.45-.07-1.14-.14-1.96-.14-2.43,0-5.8.63-8.19,3.61v9.34Z"/>
        <path class="cls-18" d="M242.01,348.76h-13.12v-15.49l.57-.14s1.21-.29,2.88-.29c2.82,0,6.75.76,9.52,4.38l.15.2v11.33ZM230.37,347.28h10.15v-9.34c-2.39-2.98-5.76-3.61-8.19-3.61-.83,0-1.51.08-1.96.14v12.81Z"/>
        <g>
          <path class="cls-18" d="M218.79,395.12h-12.3v-19.56l1.39,2.58c.93,1.73,2.73,2.8,4.69,2.8s3.94-1.2,4.81-3.07l1.41-3.01v20.25ZM207.97,393.64h9.34v-13.15c-1.25,1.22-2.95,1.94-4.74,1.94s-3.36-.66-4.6-1.79v13Z"/>
          <path class="cls-18" d="M218.79,376.38l-1.41-3.01c-.87-1.86-2.76-3.07-4.81-3.07s-3.75,1.07-4.69,2.8l-1.39,2.58v-19.13h12.3v19.81ZM212.56,368.82c1.79,0,3.49.72,4.74,1.94v-12.72h-9.34v12.57c1.23-1.13,2.87-1.79,4.6-1.79Z"/>
        </g>
        <path class="cls-18" d="M212.42,380.4c-2.64,0-4.78-2.14-4.78-4.78s2.14-4.78,4.78-4.78,4.78,2.14,4.78,4.78-2.14,4.78-4.78,4.78ZM212.42,372.33c-1.82,0-3.3,1.48-3.3,3.3s1.48,3.3,3.3,3.3,3.3-1.48,3.3-3.3-1.48-3.3-3.3-3.3Z"/>
        <g>
          <path class="cls-18" d="M241.73,395.12h-12.3v-19.56l1.39,2.58c.93,1.73,2.73,2.8,4.69,2.8s3.94-1.2,4.81-3.07l1.41-3.01v20.25ZM230.9,393.64h9.34v-13.15c-1.25,1.22-2.95,1.94-4.74,1.94s-3.36-.66-4.6-1.79v13Z"/>
          <path class="cls-18" d="M241.73,376.38l-1.41-3.01c-.87-1.86-2.76-3.07-4.81-3.07s-3.75,1.07-4.69,2.8l-1.39,2.58v-19.13h12.3v19.81ZM235.5,368.82c1.79,0,3.49.72,4.74,1.94v-12.72h-9.34v12.57c1.23-1.13,2.87-1.79,4.6-1.79Z"/>
        </g>
        <path class="cls-18" d="M235.36,380.4c-2.64,0-4.78-2.14-4.78-4.78s2.14-4.78,4.78-4.78,4.78,2.14,4.78,4.78-2.14,4.78-4.78,4.78ZM235.36,372.33c-1.82,0-3.3,1.48-3.3,3.3s1.48,3.3,3.3,3.3,3.3-1.48,3.3-3.3-1.48-3.3-3.3-3.3Z"/>
        <path class="cls-18" d="M253.36,328.3c-9.51-4.64-19.4-6.99-29.41-6.99-17.06,0-28.35,6.74-28.82,7.03l-.42.25v76.47h5.24v-73.64c2.02-1.1,11.2-5.7,24.04-5.7,8.37,0,16.64,1.93,24.62,5.73v73.6h5.24v-76.53l-.49-.24Z"/>
      </g>
    </g>
  </g>
</svg>