<?xml version="1.0" encoding="UTF-8"?>
<svg xmlns="http://www.w3.org/2000/svg" viewBox="0 0 444.89 406.72">
  <defs>
    <style>
      .cls-1 {
        fill: #755957;
      }

      .cls-2 {
        fill: #63d4fc;
      }

      .cls-3 {
        fill: #e6a88a;
      }

      .cls-4 {
        fill: #fff;
        font-family: Montserrat-Black, Montserrat;
        font-size: 35px;
        font-weight: 800;
      }

      .cls-5 {
        fill: #6b5251;
      }

      .cls-6 {
        fill: #1c262d;
      }

      .cls-7 {
        fill: #755b5a;
      }

      .cls-8 {
        fill: #d8977d;
      }

      .cls-9 {
        fill: #a5e9f9;
      }

      .cls-10 {
        fill: #545953;
      }

      .cls-11 {
        fill: #40443f;
      }

      .cls-12 {
        fill: #c68771;
      }

      .cls-13 {
        fill: #282828;
      }

      .cls-14 {
        fill: #87e5f4;
      }

      .cls-15 {
        fill: #edb29a;
      }

      .cls-16 {
        letter-spacing: -.01em;
      }

      .cls-17 {
        fill: #aeedf4;
      }

      .cls-18 {
        fill: #947976;
      }
    </style>
  </defs>
  <g id="BACKGROUND">
    <g>
      <circle class="cls-14" cx="222.44" cy="181.82" r="152.89" transform="translate(-63.41 210.54) rotate(-45)"/>
      <path class="cls-14" d="M403.89,119.09c0,14.91-12.09,27-27,27h-81c-14.91,0-27-12.09-27-27h0c0-14.91,12.09-27,27-27h81c14.91,0,27,12.09,27,27h0Z"/>
      <path class="cls-17" d="M434.89,146.54c0,12.12-9,21.95-20.1,21.95h-60.3c-11.1,0-20.1-9.83-20.1-21.95h0c0-12.12,9-21.95,20.1-21.95h60.3c11.1,0,20.1,9.83,20.1,21.95h0Z"/>
      <path class="cls-14" d="M444.89,220.09c0,14.91-12.09,27-27,27h-81c-14.91,0-27-12.09-27-27h0c0-14.91,12.09-27,27-27h81c14.91,0,27,12.09,27,27h0Z"/>
      <path class="cls-14" d="M152.89,168.49c0,16.35-13.25,29.6-29.6,29.6H34.49c-16.35,0-29.6-13.25-29.6-29.6h0c0-16.35,13.25-29.6,29.6-29.6h88.8c16.35,0,29.6,13.25,29.6,29.6h0Z"/>
      <path class="cls-14" d="M165.89,270.09c0,14.91-12.09,27-27,27H57.89c-14.91,0-27-12.09-27-27h0c0-14.91,12.09-27,27-27h81c14.91,0,27,12.09,27,27h0Z"/>
      <path class="cls-17" d="M127.54,197.89c0,11.63-9,21.06-20.1,21.06h-60.3c-11.1,0-20.1-9.43-20.1-21.06h0c0-11.63,9-21.06,20.1-21.06h60.3c11.1,0,20.1,9.43,20.1,21.06h0Z"/>
    </g>
  </g>
  <g id="OBJECTS">
    <path class="cls-6" d="M443.39,406.72H1.5c-.83,0-1.5-.67-1.5-1.5h0c0-.83.67-1.5,1.5-1.5h441.89c.83,0,1.5.67,1.5,1.5h0c0,.83-.67,1.5-1.5,1.5Z"/>
    <g>
      <g>
        <g>
          <polygon class="cls-15" points="118.93 83.56 118.93 84.56 118.93 404.56 134.22 404.56 134.22 83.56 118.93 83.56"/>
          <polygon class="cls-3" points="134.22 83.56 134.22 404.56 311.22 404.56 311.22 84.56 311.22 83.56 134.22 83.56"/>
        </g>
        <g>
          <polygon class="cls-8" points="311.22 75.01 118.93 75.01 118.93 83.56 311.22 83.56 326.11 83.56 326.11 75.01 311.22 75.01"/>
          <polygon class="cls-12" points="311.22 83.56 311.22 84.56 311.22 404.56 326.11 404.56 326.11 84.56 326.11 83.56 311.22 83.56"/>
        </g>
      </g>
      <polygon class="cls-13" points="331.39 76.16 113.18 76.16 107.94 57.48 336.64 57.48 331.39 76.16"/>
      <path class="cls-13" d="M332.15,77.16H112.42l-5.81-20.68h231.34l-5.81,20.68ZM113.94,75.16h216.7l4.68-16.68H109.25l4.68,16.68Z"/>
      <g>
        <g>
          <path class="cls-2" d="M155.21,179.83c2.75-.59,5.95-1.28,8.96-1.93-3.73.27-6.81,1.13-8.96,1.93Z"/>
          <path class="cls-2" d="M171.39,178.19c5.94,3.14,9.76,13.2-.96,16.16-8.52,2.35-14.98,8.79-18.59,13.2v18.99h29.57v-45.16c-3.52-1.72-6.9-2.7-10.03-3.17Z"/>
          <path class="cls-9" d="M170.43,194.35c10.72-2.96,6.89-13.02.96-16.16-2.6-.4-5.02-.45-7.22-.29-3.01.64-6.21,1.34-8.96,1.93-2.15.8-3.37,1.54-3.37,1.54v26.18c3.6-4.41,10.07-10.85,18.59-13.2Z"/>
        </g>
        <polygon class="cls-8" points="182.96 227.76 195.95 238.2 161.15 238.2 150.61 230.8 182.96 227.76"/>
        <path class="cls-5" d="M181.41,177.38c-16.4-8-29.57,0-29.57,0v4.44s13.17-8,29.57,0v-4.44Z"/>
        <path class="cls-18" d="M183.03,175.13c-17-9.21-32.8,0-32.8,0v2.82s16.2-9.41,32.8,0v-2.82Z"/>
        <rect class="cls-18" x="150.5" y="226.71" width="31.99" height="4.3"/>
        <path class="cls-13" d="M183.18,231.71h-33.38v-5.69h33.38v5.69ZM151.19,230.32h30.6v-2.91h-30.6v2.91Z"/>
        <path class="cls-13" d="M151.15,183.05v-6.06s.33-.2.33-.2c.25-.15,6.12-3.66,14.98-3.66,5.19,0,10.33,1.22,15.26,3.62l.39.19v5.98l-1-.49c-4.74-2.31-9.67-3.48-14.65-3.48-8.44,0-14.2,3.42-14.26,3.45l-1.06.64ZM166.46,177.57c4.84,0,9.64,1.06,14.26,3.15v-2.9c-4.62-2.19-9.42-3.3-14.26-3.3-7.31,0-12.58,2.55-13.92,3.27v2.87c2.09-1.03,7.13-3.09,13.92-3.09Z"/>
        <path class="cls-13" d="M149.53,179.17v-4.43l.35-.2c.29-.17,7.29-4.19,17.09-4.19,5.76,0,11.27,1.41,16.39,4.18l.36.2v4.43l-1.04-.59c-4.79-2.71-10.02-4.09-15.54-4.09-9.42,0-16.5,4.05-16.57,4.09l-1.05.61ZM150.92,175.55v1.26c2.36-1.16,8.47-3.73,16.22-3.73,5.37,0,10.47,1.25,15.19,3.71v-1.23c-4.81-2.53-9.98-3.81-15.36-3.81-8.21,0-14.53,3.02-16.04,3.81Z"/>
        <path class="cls-13" d="M181.72,181.09c-4.93-2.41-10.07-3.62-15.26-3.62-8.86,0-14.73,3.51-14.98,3.66l-.33.2v46.25h30.96v-46.3l-.39-.19ZM154.86,203.8h10.71v19.82h-10.71v-19.82ZM167.72,203.8h10.67v19.82h-10.67v-19.82ZM178.39,201.65h-10.67v-19.99c3.2.15,6.82.92,10.67,2.79v17.2ZM165.57,201.65h-10.71v-17.2s4.25-2.58,10.71-2.81v20.01Z"/>
      </g>
      <g>
        <g>
          <path class="cls-2" d="M213.33,179.83c2.75-.59,5.95-1.28,8.96-1.93-3.73.27-6.81,1.13-8.96,1.93Z"/>
          <path class="cls-2" d="M229.51,178.19c5.94,3.14,9.76,13.2-.96,16.16-8.52,2.35-14.99,8.79-18.59,13.2v18.99h29.57v-45.16c-3.52-1.72-6.9-2.7-10.03-3.17Z"/>
          <path class="cls-9" d="M228.55,194.35c10.72-2.96,6.89-13.02.96-16.16-2.6-.4-5.02-.45-7.22-.29-3.01.64-6.21,1.34-8.96,1.93-2.15.8-3.37,1.54-3.37,1.54v26.18c3.6-4.41,10.07-10.85,18.59-13.2Z"/>
        </g>
        <polygon class="cls-8" points="240.96 227.76 253.96 238.2 219.15 238.2 208.62 230.8 240.96 227.76"/>
        <path class="cls-5" d="M239.53,177.38c-16.4-8-29.57,0-29.57,0v4.44s13.17-8,29.57,0v-4.44Z"/>
        <path class="cls-18" d="M241.15,175.13c-17-9.21-32.8,0-32.8,0v2.82s16.2-9.41,32.8,0v-2.82Z"/>
        <path class="cls-13" d="M209.27,183.05v-6.06s.33-.2.33-.2c.25-.15,6.12-3.66,14.98-3.66,5.19,0,10.33,1.22,15.26,3.62l.39.19v5.98l-1-.49c-4.74-2.31-9.67-3.48-14.65-3.48-8.44,0-14.2,3.42-14.26,3.45l-1.06.64ZM224.58,177.57c4.84,0,9.64,1.06,14.26,3.15v-2.9c-4.62-2.19-9.41-3.3-14.26-3.3-7.31,0-12.58,2.55-13.92,3.27v2.87c2.09-1.03,7.13-3.09,13.92-3.09Z"/>
        <path class="cls-13" d="M207.65,179.17v-4.43l.35-.2c.29-.17,7.29-4.19,17.09-4.19,5.76,0,11.27,1.41,16.39,4.18l.36.2v4.43l-1.04-.59c-4.79-2.71-10.02-4.09-15.54-4.09-9.42,0-16.5,4.05-16.57,4.09l-1.05.61ZM209.04,175.55v1.26c2.36-1.16,8.47-3.73,16.22-3.73,5.37,0,10.47,1.25,15.19,3.71v-1.23c-4.81-2.53-9.98-3.81-15.36-3.81-8.21,0-14.53,3.02-16.04,3.81Z"/>
        <rect class="cls-18" x="208.62" y="226.71" width="31.99" height="4.3"/>
        <path class="cls-13" d="M241.3,231.71h-33.38v-5.69h33.38v5.69ZM209.31,230.32h30.6v-2.91h-30.6v2.91Z"/>
        <path class="cls-13" d="M239.84,181.09c-4.93-2.41-10.07-3.62-15.26-3.62-8.86,0-14.73,3.51-14.98,3.66l-.33.2v46.25h30.96v-46.3l-.39-.19ZM212.98,203.8h10.71v19.82h-10.71v-19.82ZM225.84,203.8h10.67v19.82h-10.67v-19.82ZM236.52,201.65h-10.67v-19.99c3.2.15,6.82.92,10.67,2.79v17.2ZM223.69,201.65h-10.71v-17.2s4.25-2.58,10.71-2.81v20.01Z"/>
      </g>
      <g>
        <g>
          <path class="cls-2" d="M155.21,106.35c2.75-.59,5.95-1.28,8.96-1.93-3.73.27-6.81,1.13-8.96,1.93Z"/>
          <path class="cls-2" d="M171.39,104.72c5.94,3.14,9.76,13.2-.96,16.16-8.52,2.35-14.98,8.78-18.59,13.2v18.99h29.57v-45.16c-3.52-1.72-6.9-2.7-10.03-3.18Z"/>
          <path class="cls-9" d="M170.43,120.88c10.72-2.96,6.89-13.02.96-16.16-2.6-.4-5.02-.45-7.22-.29-3.01.64-6.21,1.34-8.96,1.93-2.15.8-3.37,1.54-3.37,1.54v26.18c3.6-4.41,10.07-10.85,18.59-13.2Z"/>
        </g>
        <polygon class="cls-8" points="182.96 154.05 195.95 164.5 161.15 164.5 150.61 157.09 182.96 154.05"/>
        <path class="cls-5" d="M181.41,103.46c-16.4-8-29.57,0-29.57,0v4.44s13.17-8,29.57,0v-4.44Z"/>
        <path class="cls-13" d="M151.15,109.13v-6.06s.33-.2.33-.2c.25-.15,6.12-3.66,14.98-3.66,5.19,0,10.33,1.22,15.26,3.62l.39.19v5.98l-1-.49c-4.74-2.31-9.67-3.48-14.65-3.48-8.44,0-14.2,3.42-14.26,3.45l-1.06.64ZM166.46,103.64c4.84,0,9.64,1.06,14.26,3.15v-2.9c-4.62-2.19-9.42-3.3-14.26-3.3-7.31,0-12.58,2.55-13.92,3.27v2.87c2.09-1.03,7.13-3.09,13.92-3.09Z"/>
        <path class="cls-18" d="M183.03,101.73c-17-9.21-32.8,0-32.8,0v2.82s16.2-9.41,32.8,0v-2.82Z"/>
        <path class="cls-13" d="M149.53,105.77v-4.43l.35-.2c.29-.17,7.29-4.19,17.09-4.19,5.76,0,11.27,1.4,16.39,4.18l.36.2v4.43l-1.04-.59c-4.79-2.71-10.02-4.09-15.54-4.09-9.42,0-16.5,4.05-16.57,4.09l-1.05.61ZM150.92,102.15v1.26c2.36-1.16,8.47-3.73,16.22-3.73,5.37,0,10.47,1.25,15.19,3.71v-1.23c-4.81-2.53-9.98-3.81-15.36-3.81-8.21,0-14.53,3.02-16.04,3.81Z"/>
        <rect class="cls-18" x="150.5" y="152.79" width="31.99" height="4.3"/>
        <path class="cls-13" d="M183.18,157.79h-33.38v-5.69h33.38v5.69ZM151.19,156.39h30.6v-2.91h-30.6v2.91Z"/>
        <path class="cls-13" d="M181.72,107.27c-4.93-2.41-10.07-3.63-15.26-3.63-8.86,0-14.73,3.51-14.98,3.66l-.33.2v46.25h30.96v-46.3l-.39-.19ZM154.86,129.88h10.71v19.82h-10.71v-19.82ZM167.72,129.88h10.67v19.82h-10.67v-19.82ZM178.39,127.73h-10.67s0-19.99,0-19.99c3.2.15,6.82.92,10.67,2.79v17.2ZM165.57,127.73h-10.71v-17.2s4.25-2.58,10.71-2.81v20.01Z"/>
      </g>
      <g>
        <g>
          <path class="cls-2" d="M213.33,106.35c2.75-.59,5.95-1.28,8.96-1.93-3.73.27-6.81,1.13-8.96,1.93Z"/>
          <path class="cls-2" d="M229.51,104.72c5.94,3.14,9.76,13.2-.96,16.16-8.52,2.35-14.99,8.78-18.59,13.2v18.99h29.57v-45.16c-3.52-1.72-6.9-2.7-10.03-3.18Z"/>
          <path class="cls-9" d="M228.55,120.88c10.72-2.96,6.89-13.02.96-16.16-2.6-.4-5.02-.45-7.22-.29-3.01.64-6.21,1.34-8.96,1.93-2.15.8-3.37,1.54-3.37,1.54v26.18c3.6-4.41,10.07-10.85,18.59-13.2Z"/>
        </g>
        <polygon class="cls-8" points="240.96 154.05 253.96 164.5 219.15 164.5 208.62 157.09 240.96 154.05"/>
        <path class="cls-5" d="M239.53,103.46c-16.4-8-29.57,0-29.57,0v4.44s13.17-8,29.57,0v-4.44Z"/>
        <path class="cls-18" d="M241.15,101.21c-17-9.21-32.8,0-32.8,0v2.82s16.2-9.41,32.8,0v-2.82Z"/>
        <path class="cls-13" d="M209.27,109.13v-6.06s.33-.2.33-.2c.25-.15,6.12-3.66,14.98-3.66,5.19,0,10.33,1.22,15.26,3.62l.39.19v5.98l-1-.49c-4.74-2.31-9.67-3.48-14.65-3.48-8.44,0-14.2,3.42-14.26,3.45l-1.06.64ZM224.58,103.64c4.84,0,9.64,1.06,14.26,3.15v-2.9c-4.62-2.19-9.41-3.3-14.26-3.3-7.31,0-12.58,2.55-13.92,3.27v2.87c2.09-1.03,7.13-3.09,13.92-3.09Z"/>
        <rect class="cls-18" x="208.62" y="152.79" width="31.99" height="4.3"/>
        <path class="cls-13" d="M241.3,157.79h-33.38v-5.69h33.38v5.69ZM209.31,156.39h30.6v-2.91h-30.6v2.91Z"/>
        <path class="cls-13" d="M239.84,107.27c-4.93-2.41-10.07-3.63-15.26-3.63-8.86,0-14.73,3.51-14.98,3.66l-.33.2v46.25h30.96v-46.3l-.39-.19ZM212.98,129.88h10.71v19.82h-10.71v-19.82ZM225.84,129.88h10.67v19.82h-10.67v-19.82ZM236.52,127.73h-10.67s0-19.99,0-19.99c3.2.15,6.82.92,10.67,2.79v17.2ZM223.69,127.73h-10.71v-17.2s4.25-2.58,10.71-2.81v20.01Z"/>
        <path class="cls-13" d="M207.65,105.24v-4.43l.35-.2c.29-.17,7.29-4.19,17.09-4.19,5.76,0,11.27,1.41,16.39,4.18l.36.2v4.43l-1.04-.59c-4.79-2.71-10.02-4.09-15.54-4.09-9.42,0-16.5,4.05-16.57,4.09l-1.05.61ZM209.04,101.63v1.26c2.36-1.16,8.47-3.73,16.22-3.73,5.37,0,10.47,1.25,15.19,3.71v-1.23c-4.81-2.53-9.98-3.81-15.36-3.81-8.21,0-14.53,3.02-16.04,3.81Z"/>
      </g>
      <g>
        <g>
          <path class="cls-2" d="M268.26,179.83c2.75-.59,5.95-1.28,8.95-1.93-3.73.27-6.81,1.13-8.95,1.93Z"/>
          <path class="cls-2" d="M284.44,178.19c5.94,3.14,9.76,13.2-.96,16.16-8.52,2.35-14.99,8.79-18.59,13.2v18.99h29.57v-45.16c-3.52-1.72-6.9-2.7-10.03-3.17Z"/>
          <path class="cls-9" d="M283.48,194.35c10.71-2.96,6.89-13.02.96-16.16-2.6-.4-5.02-.45-7.22-.29-3.01.64-6.21,1.34-8.95,1.93-2.15.8-3.37,1.54-3.37,1.54v26.18c3.6-4.41,10.07-10.85,18.59-13.2Z"/>
        </g>
        <polygon class="cls-8" points="295.9 227.76 308.89 238.2 274.09 238.2 263.55 230.8 295.9 227.76"/>
        <path class="cls-5" d="M294.47,177.38c-16.4-8-29.57,0-29.57,0v4.44s13.17-8,29.57,0v-4.44Z"/>
        <path class="cls-18" d="M296.08,175.13c-17-9.21-32.8,0-32.8,0v2.82s16.2-9.41,32.8,0v-2.82Z"/>
        <path class="cls-13" d="M264.2,183.05v-6.06l.33-.2c.25-.15,6.12-3.66,14.98-3.66,5.19,0,10.33,1.22,15.26,3.62l.39.19v5.98l-1-.49c-4.74-2.31-9.67-3.48-14.65-3.48-8.44,0-14.2,3.42-14.26,3.45l-1.06.64ZM279.51,177.57c4.84,0,9.63,1.06,14.26,3.15v-2.9c-4.62-2.19-9.41-3.3-14.26-3.3-7.31,0-12.58,2.55-13.92,3.27v2.87c2.09-1.03,7.13-3.09,13.92-3.09Z"/>
        <path class="cls-13" d="M262.58,179.17v-4.43l.34-.2c.29-.17,7.29-4.19,17.09-4.19,5.76,0,11.27,1.41,16.39,4.18l.36.2v4.43l-1.04-.59c-4.79-2.71-10.02-4.09-15.54-4.09-9.42,0-16.5,4.05-16.57,4.09l-1.04.61ZM263.98,175.55v1.26c2.36-1.16,8.47-3.73,16.22-3.73,5.37,0,10.47,1.25,15.19,3.71v-1.23c-4.81-2.53-9.98-3.81-15.37-3.81-8.21,0-14.53,3.02-16.04,3.81Z"/>
        <rect class="cls-18" x="263.55" y="226.71" width="31.99" height="4.3"/>
        <path class="cls-13" d="M296.24,231.71h-33.38v-5.69h33.38v5.69ZM264.24,230.32h30.6v-2.91h-30.6v2.91Z"/>
        <path class="cls-13" d="M294.77,181.09c-4.93-2.41-10.07-3.62-15.26-3.62-8.86,0-14.73,3.51-14.98,3.66l-.33.2v46.25h30.96v-46.3l-.39-.19ZM267.91,203.8h10.71v19.82h-10.71v-19.82ZM280.77,203.8h10.67v19.82h-10.67v-19.82ZM291.45,201.65h-10.67v-19.99c3.2.15,6.82.92,10.67,2.79v17.2ZM278.62,201.65h-10.71v-17.2s4.25-2.58,10.71-2.81v20.01Z"/>
      </g>
      <g>
        <g>
          <path class="cls-2" d="M155.21,253.83c2.75-.59,5.95-1.28,8.96-1.93-3.73.26-6.81,1.13-8.96,1.93Z"/>
          <path class="cls-2" d="M171.39,252.2c5.94,3.14,9.76,13.2-.96,16.16-8.52,2.35-14.98,8.79-18.59,13.2v18.99h29.57v-45.17c-3.52-1.72-6.9-2.7-10.03-3.17Z"/>
          <path class="cls-9" d="M170.43,268.35c10.72-2.96,6.89-13.02.96-16.16-2.6-.4-5.02-.45-7.22-.29-3.01.64-6.21,1.33-8.96,1.93-2.15.8-3.37,1.54-3.37,1.54v26.18c3.6-4.41,10.07-10.85,18.59-13.2Z"/>
        </g>
        <polygon class="cls-8" points="182.96 301.76 195.95 312.2 161.15 312.2 150.61 304.8 182.96 301.76"/>
        <path class="cls-5" d="M181.41,251.38c-16.4-8-29.57,0-29.57,0v4.43s13.17-8,29.57,0v-4.43Z"/>
        <path class="cls-18" d="M183.03,249.13c-17-9.21-32.8,0-32.8,0v2.82s16.2-9.41,32.8,0v-2.82Z"/>
        <rect class="cls-18" x="150.5" y="300.71" width="31.99" height="4.3"/>
        <path class="cls-13" d="M183.18,305.71h-33.38v-5.69h33.38v5.69ZM151.19,304.32h30.6v-2.91h-30.6v2.91Z"/>
        <path class="cls-13" d="M151.15,257.05v-6.06s.33-.2.33-.2c.25-.15,6.12-3.66,14.98-3.66,5.19,0,10.33,1.22,15.26,3.62l.39.19v5.98l-1-.49c-4.74-2.31-9.67-3.48-14.65-3.48-8.44,0-14.2,3.42-14.26,3.45l-1.06.64ZM166.46,251.57c4.84,0,9.64,1.06,14.26,3.15v-2.9c-4.62-2.19-9.42-3.3-14.26-3.3-7.31,0-12.58,2.55-13.92,3.27v2.87c2.09-1.03,7.13-3.09,13.92-3.09Z"/>
        <path class="cls-13" d="M149.53,253.17v-4.43l.35-.2c.29-.17,7.29-4.19,17.09-4.19,5.76,0,11.27,1.41,16.39,4.18l.36.2v4.43l-1.04-.59c-4.79-2.71-10.02-4.09-15.54-4.09-9.42,0-16.5,4.05-16.57,4.09l-1.05.61ZM150.92,249.55v1.26c2.36-1.16,8.47-3.73,16.22-3.73,5.37,0,10.47,1.25,15.19,3.71v-1.23c-4.81-2.53-9.98-3.81-15.36-3.81-8.21,0-14.53,3.02-16.04,3.81Z"/>
        <path class="cls-13" d="M181.72,255.09c-4.93-2.4-10.07-3.62-15.26-3.62-8.86,0-14.73,3.51-14.98,3.66l-.33.2v46.25h30.96v-46.3l-.39-.19ZM154.86,277.8h10.71v19.82h-10.71v-19.82ZM167.72,277.8h10.67v19.82h-10.67v-19.82ZM178.39,275.65h-10.67v-19.99c3.2.15,6.82.92,10.67,2.79v17.2ZM165.57,275.65h-10.71v-17.2s4.25-2.58,10.71-2.81v20.01Z"/>
      </g>
      <g>
        <g>
          <path class="cls-2" d="M213.33,253.83c2.75-.59,5.95-1.28,8.96-1.93-3.73.26-6.81,1.13-8.96,1.93Z"/>
          <path class="cls-2" d="M229.51,252.2c5.94,3.14,9.76,13.2-.96,16.16-8.52,2.35-14.99,8.79-18.59,13.2v18.99h29.57v-45.17c-3.52-1.72-6.9-2.7-10.03-3.17Z"/>
          <path class="cls-9" d="M228.55,268.35c10.72-2.96,6.89-13.02.96-16.16-2.6-.4-5.02-.45-7.22-.29-3.01.64-6.21,1.33-8.96,1.93-2.15.8-3.37,1.54-3.37,1.54v26.18c3.6-4.41,10.07-10.85,18.59-13.2Z"/>
        </g>
        <polygon class="cls-8" points="240.96 301.76 253.96 312.2 219.15 312.2 208.62 304.8 240.96 301.76"/>
        <path class="cls-5" d="M239.53,251.38c-16.4-8-29.57,0-29.57,0v4.43s13.17-8,29.57,0v-4.43Z"/>
        <path class="cls-18" d="M241.15,249.13c-17-9.21-32.8,0-32.8,0v2.82s16.2-9.41,32.8,0v-2.82Z"/>
        <path class="cls-13" d="M209.27,257.05v-6.06s.33-.2.33-.2c.25-.15,6.12-3.66,14.98-3.66,5.19,0,10.33,1.22,15.26,3.62l.39.19v5.98l-1-.49c-4.74-2.31-9.67-3.48-14.65-3.48-8.44,0-14.2,3.42-14.26,3.45l-1.06.64ZM224.58,251.57c4.84,0,9.64,1.06,14.26,3.15v-2.9c-4.62-2.19-9.41-3.3-14.26-3.3-7.31,0-12.58,2.55-13.92,3.27v2.87c2.09-1.03,7.13-3.09,13.92-3.09Z"/>
        <path class="cls-13" d="M207.65,253.17v-4.43l.35-.2c.29-.17,7.29-4.19,17.09-4.19,5.76,0,11.27,1.41,16.39,4.18l.36.2v4.43l-1.04-.59c-4.79-2.71-10.02-4.09-15.54-4.09-9.42,0-16.5,4.05-16.57,4.09l-1.05.61ZM209.04,249.55v1.26c2.36-1.16,8.47-3.73,16.22-3.73,5.37,0,10.47,1.25,15.19,3.71v-1.23c-4.81-2.53-9.98-3.81-15.36-3.81-8.21,0-14.53,3.02-16.04,3.81Z"/>
        <rect class="cls-18" x="208.62" y="300.71" width="31.99" height="4.3"/>
        <path class="cls-13" d="M241.3,305.71h-33.38v-5.69h33.38v5.69ZM209.31,304.32h30.6v-2.91h-30.6v2.91Z"/>
        <path class="cls-13" d="M239.84,255.09c-4.93-2.4-10.07-3.62-15.26-3.62-8.86,0-14.73,3.51-14.98,3.66l-.33.2v46.25h30.96v-46.3l-.39-.19ZM212.98,277.8h10.71v19.82h-10.71v-19.82ZM225.84,277.8h10.67v19.82h-10.67v-19.82ZM236.52,275.65h-10.67v-19.99c3.2.15,6.82.92,10.67,2.79v17.2ZM223.69,275.65h-10.71v-17.2s4.25-2.58,10.71-2.81v20.01Z"/>
      </g>
      <g>
        <g>
          <path class="cls-2" d="M268.26,253.83c2.75-.59,5.95-1.28,8.95-1.93-3.73.26-6.81,1.13-8.95,1.93Z"/>
          <path class="cls-2" d="M284.44,252.2c5.94,3.14,9.76,13.2-.96,16.16-8.52,2.35-14.99,8.79-18.59,13.2v18.99h29.57v-45.17c-3.52-1.72-6.9-2.7-10.03-3.17Z"/>
          <path class="cls-9" d="M283.48,268.35c10.71-2.96,6.89-13.02.96-16.16-2.6-.4-5.02-.45-7.22-.29-3.01.64-6.21,1.33-8.95,1.93-2.15.8-3.37,1.54-3.37,1.54v26.18c3.6-4.41,10.07-10.85,18.59-13.2Z"/>
        </g>
        <polygon class="cls-8" points="295.9 301.76 308.89 312.2 274.09 312.2 263.55 304.8 295.9 301.76"/>
        <path class="cls-5" d="M294.47,251.38c-16.4-8-29.57,0-29.57,0v4.43s13.17-8,29.57,0v-4.43Z"/>
        <path class="cls-18" d="M296.08,249.13c-17-9.21-32.8,0-32.8,0v2.82s16.2-9.41,32.8,0v-2.82Z"/>
        <path class="cls-13" d="M264.2,257.05v-6.06l.33-.2c.25-.15,6.12-3.66,14.98-3.66,5.19,0,10.33,1.22,15.26,3.62l.39.19v5.98l-1-.49c-4.74-2.31-9.67-3.48-14.65-3.48-8.44,0-14.2,3.42-14.26,3.45l-1.06.64ZM279.51,251.57c4.84,0,9.63,1.06,14.26,3.15v-2.9c-4.62-2.19-9.41-3.3-14.26-3.3-7.31,0-12.58,2.55-13.92,3.27v2.87c2.09-1.03,7.13-3.09,13.92-3.09Z"/>
        <path class="cls-13" d="M262.58,253.17v-4.43l.34-.2c.29-.17,7.29-4.19,17.09-4.19,5.76,0,11.27,1.41,16.39,4.18l.36.2v4.43l-1.04-.59c-4.79-2.71-10.02-4.09-15.54-4.09-9.42,0-16.5,4.05-16.57,4.09l-1.04.61ZM263.98,249.55v1.26c2.36-1.16,8.47-3.73,16.22-3.73,5.37,0,10.47,1.25,15.19,3.71v-1.23c-4.81-2.53-9.98-3.81-15.37-3.81-8.21,0-14.53,3.02-16.04,3.81Z"/>
        <rect class="cls-18" x="263.55" y="300.71" width="31.99" height="4.3"/>
        <path class="cls-13" d="M296.24,305.71h-33.38v-5.69h33.38v5.69ZM264.24,304.32h30.6v-2.91h-30.6v2.91Z"/>
        <path class="cls-13" d="M294.77,255.09c-4.93-2.4-10.07-3.62-15.26-3.62-8.86,0-14.73,3.51-14.98,3.66l-.33.2v46.25h30.96v-46.3l-.39-.19ZM267.91,277.8h10.71v19.82h-10.71v-19.82ZM280.77,277.8h10.67v19.82h-10.67v-19.82ZM291.45,275.65h-10.67v-19.99c3.2.15,6.82.92,10.67,2.79v17.2ZM278.62,275.65h-10.71v-17.2s4.25-2.58,10.71-2.81v20.01Z"/>
      </g>
      <g>
        <g>
          <path class="cls-2" d="M155.21,332.83c2.75-.59,5.95-1.28,8.96-1.93-3.73.26-6.81,1.13-8.96,1.93Z"/>
          <path class="cls-2" d="M171.39,331.2c5.94,3.14,9.76,13.2-.96,16.16-8.52,2.35-14.98,8.79-18.59,13.2v18.99h29.57v-45.17c-3.52-1.72-6.9-2.7-10.03-3.17Z"/>
          <path class="cls-9" d="M170.43,347.35c10.72-2.96,6.89-13.02.96-16.16-2.6-.4-5.02-.45-7.22-.29-3.01.64-6.21,1.33-8.96,1.93-2.15.8-3.37,1.54-3.37,1.54v26.18c3.6-4.41,10.07-10.85,18.59-13.2Z"/>
        </g>
        <polygon class="cls-8" points="182.96 380.76 195.95 391.2 161.15 391.2 150.61 383.8 182.96 380.76"/>
        <path class="cls-5" d="M181.41,330.38c-16.4-8-29.57,0-29.57,0v4.43s13.17-8,29.57,0v-4.43Z"/>
        <path class="cls-18" d="M183.03,328.13c-17-9.21-32.8,0-32.8,0v2.82s16.2-9.41,32.8,0v-2.82Z"/>
        <rect class="cls-18" x="150.5" y="379.71" width="31.99" height="4.3"/>
        <path class="cls-13" d="M183.18,384.71h-33.38v-5.69h33.38v5.69ZM151.19,383.32h30.6v-2.91h-30.6v2.91Z"/>
        <path class="cls-13" d="M151.15,336.05v-6.06s.33-.2.33-.2c.25-.15,6.12-3.66,14.98-3.66,5.19,0,10.33,1.22,15.26,3.62l.39.19v5.98l-1-.49c-4.74-2.31-9.67-3.48-14.65-3.48-8.44,0-14.2,3.42-14.26,3.45l-1.06.64ZM166.46,330.57c4.84,0,9.64,1.06,14.26,3.15v-2.9c-4.62-2.19-9.42-3.3-14.26-3.3-7.31,0-12.58,2.55-13.92,3.27v2.87c2.09-1.03,7.13-3.09,13.92-3.09Z"/>
        <path class="cls-13" d="M149.53,332.17v-4.43l.35-.2c.29-.17,7.29-4.19,17.09-4.19,5.76,0,11.27,1.41,16.39,4.18l.36.2v4.43l-1.04-.59c-4.79-2.71-10.02-4.09-15.54-4.09-9.42,0-16.5,4.05-16.57,4.09l-1.05.61ZM150.92,328.55v1.26c2.36-1.16,8.47-3.73,16.22-3.73,5.37,0,10.47,1.25,15.19,3.71v-1.23c-4.81-2.53-9.98-3.81-15.36-3.81-8.21,0-14.53,3.02-16.04,3.81Z"/>
        <path class="cls-13" d="M181.72,334.09c-4.93-2.4-10.07-3.62-15.26-3.62-8.86,0-14.73,3.51-14.98,3.66l-.33.2v46.25h30.96v-46.3l-.39-.19ZM154.86,356.8h10.71v19.82h-10.71v-19.82ZM167.72,356.8h10.67v19.82h-10.67v-19.82ZM178.39,354.65h-10.67v-19.99c3.2.15,6.82.92,10.67,2.79v17.2ZM165.57,354.65h-10.71v-17.2s4.25-2.58,10.71-2.81v20.01Z"/>
      </g>
      <g>
        <g>
          <path class="cls-2" d="M268.26,332.83c2.75-.59,5.95-1.28,8.95-1.93-3.73.26-6.81,1.13-8.95,1.93Z"/>
          <path class="cls-2" d="M284.44,331.2c5.94,3.14,9.76,13.2-.96,16.16-8.52,2.35-14.99,8.79-18.59,13.2v18.99h29.57v-45.17c-3.52-1.72-6.9-2.7-10.03-3.17Z"/>
          <path class="cls-9" d="M283.48,347.35c10.71-2.96,6.89-13.02.96-16.16-2.6-.4-5.02-.45-7.22-.29-3.01.64-6.21,1.33-8.95,1.93-2.15.8-3.37,1.54-3.37,1.54v26.18c3.6-4.41,10.07-10.85,18.59-13.2Z"/>
        </g>
        <polygon class="cls-8" points="295.9 380.76 308.89 391.2 274.09 391.2 263.55 383.8 295.9 380.76"/>
        <path class="cls-5" d="M294.47,330.38c-16.4-8-29.57,0-29.57,0v4.43s13.17-8,29.57,0v-4.43Z"/>
        <path class="cls-18" d="M296.08,328.13c-17-9.21-32.8,0-32.8,0v2.82s16.2-9.41,32.8,0v-2.82Z"/>
        <path class="cls-13" d="M264.2,336.05v-6.06l.33-.2c.25-.15,6.12-3.66,14.98-3.66,5.19,0,10.33,1.22,15.26,3.62l.39.19v5.98l-1-.49c-4.74-2.31-9.67-3.48-14.65-3.48-8.44,0-14.2,3.42-14.26,3.45l-1.06.64ZM279.51,330.57c4.84,0,9.63,1.06,14.26,3.15v-2.9c-4.62-2.19-9.41-3.3-14.26-3.3-7.31,0-12.58,2.55-13.92,3.27v2.87c2.09-1.03,7.13-3.09,13.92-3.09Z"/>
        <path class="cls-13" d="M262.58,332.17v-4.43l.34-.2c.29-.17,7.29-4.19,17.09-4.19,5.76,0,11.27,1.41,16.39,4.18l.36.2v4.43l-1.04-.59c-4.79-2.71-10.02-4.09-15.54-4.09-9.42,0-16.5,4.05-16.57,4.09l-1.04.61ZM263.98,328.55v1.26c2.36-1.16,8.47-3.73,16.22-3.73,5.37,0,10.47,1.25,15.19,3.71v-1.23c-4.81-2.53-9.98-3.81-15.37-3.81-8.21,0-14.53,3.02-16.04,3.81Z"/>
        <rect class="cls-18" x="263.55" y="379.71" width="31.99" height="4.3"/>
        <path class="cls-13" d="M296.24,384.71h-33.38v-5.69h33.38v5.69ZM264.24,383.32h30.6v-2.91h-30.6v2.91Z"/>
        <path class="cls-13" d="M294.77,334.09c-4.93-2.4-10.07-3.62-15.26-3.62-8.86,0-14.73,3.51-14.98,3.66l-.33.2v46.25h30.96v-46.3l-.39-.19ZM267.91,356.8h10.71v19.82h-10.71v-19.82ZM280.77,356.8h10.67v19.82h-10.67v-19.82ZM291.45,354.65h-10.67v-19.99c3.2.15,6.82.92,10.67,2.79v17.2ZM278.62,354.65h-10.71v-17.2s4.25-2.58,10.71-2.81v20.01Z"/>
      </g>
      <g>
        <g>
          <path class="cls-2" d="M268.26,106.35c2.75-.59,5.95-1.28,8.95-1.93-3.73.27-6.81,1.13-8.95,1.93Z"/>
          <path class="cls-2" d="M284.44,104.72c5.94,3.14,9.76,13.2-.96,16.16-8.52,2.35-14.99,8.78-18.59,13.2v18.99h29.57v-45.16c-3.52-1.72-6.9-2.7-10.03-3.18Z"/>
          <path class="cls-9" d="M283.48,120.88c10.71-2.96,6.89-13.02.96-16.16-2.6-.4-5.02-.45-7.22-.29-3.01.64-6.21,1.34-8.95,1.93-2.15.8-3.37,1.54-3.37,1.54v26.18c3.6-4.41,10.07-10.85,18.59-13.2Z"/>
        </g>
        <polygon class="cls-8" points="295.9 154.05 308.89 164.5 274.09 164.5 263.55 157.09 295.9 154.05"/>
        <path class="cls-5" d="M294.47,103.46c-16.4-8-29.57,0-29.57,0v4.44s13.17-8,29.57,0v-4.44Z"/>
        <path class="cls-18" d="M296.08,101.21c-17-9.21-32.8,0-32.8,0v2.82s16.2-9.41,32.8,0v-2.82Z"/>
        <path class="cls-13" d="M264.2,109.13v-6.06l.33-.2c.25-.15,6.12-3.66,14.98-3.66,5.19,0,10.33,1.22,15.26,3.62l.39.19v5.98l-1-.49c-4.74-2.31-9.67-3.48-14.65-3.48-8.44,0-14.2,3.42-14.26,3.45l-1.06.64ZM279.51,103.64c4.84,0,9.63,1.06,14.26,3.15v-2.9c-4.62-2.19-9.41-3.3-14.26-3.3-7.31,0-12.58,2.55-13.92,3.27v2.87c2.09-1.03,7.13-3.09,13.92-3.09Z"/>
        <rect class="cls-18" x="263.55" y="152.79" width="31.99" height="4.3"/>
        <path class="cls-13" d="M296.24,157.79h-33.38v-5.69h33.38v5.69ZM264.24,156.39h30.6v-2.91h-30.6v2.91Z"/>
        <path class="cls-13" d="M294.77,107.27c-4.93-2.41-10.07-3.63-15.26-3.63-8.86,0-14.73,3.51-14.98,3.66l-.33.2v46.25h30.96v-46.3l-.39-.19ZM267.91,129.88h10.71v19.82h-10.71v-19.82ZM280.77,129.88h10.67v19.82h-10.67v-19.82ZM291.45,127.73h-10.67s0-19.99,0-19.99c3.2.15,6.82.92,10.67,2.79v17.2ZM278.62,127.73h-10.71v-17.2s4.25-2.58,10.71-2.81v20.01Z"/>
        <path class="cls-13" d="M262.58,105.24v-4.43l.34-.2c.29-.17,7.29-4.19,17.09-4.19,5.76,0,11.27,1.41,16.39,4.18l.36.2v4.43l-1.04-.59c-4.79-2.71-10.02-4.09-15.54-4.09-9.42,0-16.5,4.05-16.57,4.09l-1.04.61ZM263.98,101.63v1.26c2.36-1.16,8.47-3.73,16.22-3.73,5.37,0,10.47,1.25,15.19,3.71v-1.23c-4.81-2.53-9.98-3.81-15.37-3.81-8.21,0-14.53,3.02-16.04,3.81Z"/>
      </g>
      <g>
        <path class="cls-13" d="M326.98,105.89h-8.9v-9.33h8.9v9.33ZM320.08,103.89h4.9v-5.33h-4.9v5.33Z"/>
        <path class="cls-13" d="M326.51,123.22h-13.92v-9.33h13.92v9.33ZM314.6,121.22h9.92v-5.33h-9.92v5.33Z"/>
        <path class="cls-13" d="M326.98,146.89h-8.9v-9.33h8.9v9.33ZM320.08,144.89h4.9v-5.33h-4.9v5.33Z"/>
        <path class="cls-13" d="M326.51,164.22h-13.92v-9.33h13.92v9.33ZM314.6,162.22h9.92v-5.33h-9.92v5.33Z"/>
        <path class="cls-13" d="M326.98,187.89h-8.9v-9.33h8.9v9.33ZM320.08,185.89h4.9v-5.33h-4.9v5.33Z"/>
        <path class="cls-13" d="M326.51,205.22h-13.92v-9.33h13.92v9.33ZM314.6,203.22h9.92v-5.33h-9.92v5.33Z"/>
        <path class="cls-13" d="M326.98,228.88h-8.9v-9.33h8.9v9.33ZM320.08,226.88h4.9v-5.33h-4.9v5.33Z"/>
        <path class="cls-13" d="M326.51,246.22h-13.92v-9.33h13.92v9.33ZM314.6,244.22h9.92v-5.33h-9.92v5.33Z"/>
        <path class="cls-13" d="M326.98,269.88h-8.9v-9.33h8.9v9.33ZM320.08,267.88h4.9v-5.33h-4.9v5.33Z"/>
        <path class="cls-13" d="M326.51,287.22h-13.92v-9.33h13.92v9.33ZM314.6,285.22h9.92v-5.33h-9.92v5.33Z"/>
        <path class="cls-13" d="M326.98,310.88h-8.9v-9.33h8.9v9.33ZM320.08,308.88h4.9v-5.33h-4.9v5.33Z"/>
        <path class="cls-13" d="M326.51,328.21h-13.92v-9.33h13.92v9.33ZM314.6,326.21h9.92v-5.33h-9.92v5.33Z"/>
        <path class="cls-13" d="M326.98,351.88h-8.9v-9.33h8.9v9.33ZM320.08,349.88h4.9v-5.33h-4.9v5.33Z"/>
        <path class="cls-13" d="M326.51,369.21h-13.92v-9.33h13.92v9.33ZM314.6,367.21h9.92v-5.33h-9.92v5.33Z"/>
      </g>
      <g>
        <path class="cls-13" d="M127.34,105.89h-8.9v-9.33h8.9v9.33ZM120.44,103.89h4.9v-5.33h-4.9v5.33Z"/>
        <path class="cls-13" d="M132.82,123.22h-13.92v-9.33h13.92v9.33ZM120.91,121.22h9.92v-5.33h-9.92v5.33Z"/>
        <path class="cls-13" d="M127.34,146.89h-8.9v-9.33h8.9v9.33ZM120.44,144.89h4.9v-5.33h-4.9v5.33Z"/>
        <path class="cls-13" d="M132.82,164.22h-13.92v-9.33h13.92v9.33ZM120.91,162.22h9.92v-5.33h-9.92v5.33Z"/>
        <path class="cls-13" d="M127.34,187.89h-8.9v-9.33h8.9v9.33ZM120.44,185.89h4.9v-5.33h-4.9v5.33Z"/>
        <path class="cls-13" d="M132.82,205.22h-13.92v-9.33h13.92v9.33ZM120.91,203.22h9.92v-5.33h-9.92v5.33Z"/>
        <path class="cls-13" d="M127.34,228.88h-8.9v-9.33h8.9v9.33ZM120.44,226.88h4.9v-5.33h-4.9v5.33Z"/>
        <path class="cls-13" d="M132.82,246.22h-13.92v-9.33h13.92v9.33ZM120.91,244.22h9.92v-5.33h-9.92v5.33Z"/>
        <path class="cls-13" d="M127.34,269.88h-8.9v-9.33h8.9v9.33ZM120.44,267.88h4.9v-5.33h-4.9v5.33Z"/>
        <path class="cls-13" d="M132.82,287.22h-13.92v-9.33h13.92v9.33ZM120.91,285.22h9.92v-5.33h-9.92v5.33Z"/>
        <path class="cls-13" d="M127.34,310.88h-8.9v-9.33h8.9v9.33ZM120.44,308.88h4.9v-5.33h-4.9v5.33Z"/>
        <path class="cls-13" d="M132.82,328.21h-13.92v-9.33h13.92v9.33ZM120.91,326.21h9.92v-5.33h-9.92v5.33Z"/>
        <path class="cls-13" d="M127.34,351.88h-8.9v-9.33h8.9v9.33ZM120.44,349.88h4.9v-5.33h-4.9v5.33Z"/>
        <path class="cls-13" d="M132.82,369.21h-13.92v-9.33h13.92v9.33ZM120.91,367.21h9.92v-5.33h-9.92v5.33Z"/>
      </g>
      <path class="cls-13" d="M327.11,405.56H117.93V74.01h209.18v331.55ZM119.93,403.56h205.18V76.01H119.93v327.55Z"/>
      <g>
        <rect class="cls-13" x="110.69" y="34.67" width="45.72" height="4" transform="translate(52.03 148.63) rotate(-69.29)"/>
        <rect class="cls-13" x="143.67" y="13.81" width="4" height="45.72" transform="translate(-3.56 53.87) rotate(-20.7)"/>
        <rect class="cls-13" x="273.01" y="34.67" width="45.72" height="4" transform="translate(156.98 300.48) rotate(-69.3)"/>
        <rect class="cls-13" x="305.99" y="13.81" width="4" height="45.72" transform="translate(6.93 111.25) rotate(-20.7)"/>
        <path class="cls-1" d="M309.98,34.22c0,7.06-4.48,12.79-10,12.79h-158.63c-5.52,0-10-5.73-10-12.79V12.79c0-7.07,4.48-12.79,10-12.79h158.63c5.52,0,10,5.73,10,12.79v21.43Z"/>
        <path class="cls-18" d="M307.2,32.8c0,6.13-3.89,11.1-8.68,11.1h-154.7c-4.79,0-8.68-4.97-8.68-11.1V14.2c0-6.13,3.89-11.1,8.68-11.1h154.7c4.79,0,8.68,4.97,8.68,11.1v18.6Z"/>
        <text class="cls-4" transform="translate(159.69 36.65)"><tspan x="0" y="0">H</tspan><tspan class="cls-16" x="28.14" y="0">O</tspan><tspan x="57.47" y="0">TEL</tspan></text>
      </g>
      <g>
        <g>
          <path class="cls-18" d="M203.02,354.42h16.16v32.13c2.23-1.68,4.46-3.55,6.64-5.62v-26.51h16.16v3.66c2.55-5.72,4.54-12.17,5.74-19.46v-7.66c-27.78-13.54-50.09,0-50.09,0v67.27c1.62-.59,3.44-1.31,5.39-2.19v-41.62Z"/>
          <path class="cls-7" d="M241.97,358.07v39.62h-16.16v-16.77c-2.18,2.07-4.41,3.94-6.64,5.62v11.15h-16.16v-1.66c-1.95.87-3.77,1.59-5.39,2.19v6.14h50.09v-65.75c-1.2,7.28-3.2,13.74-5.74,19.46Z"/>
          <path class="cls-11" d="M216.43,394.38h-9.92c-1.21.6-2.38,1.15-3.5,1.66v1.66h16.16v-11.15c-.91.69-1.83,1.35-2.74,1.98v5.86Z"/>
          <path class="cls-10" d="M203.02,354.42v41.62c1.12-.5,2.29-1.05,3.5-1.66h-.9v-15.89c1.02,1.9,3.03,3.19,5.34,3.19,2.43,0,4.52-1.43,5.48-3.49v10.33c.91-.63,1.83-1.29,2.74-1.98v-32.13h-16.16ZM210.95,369.56c-2.31,0-4.31,1.29-5.34,3.19v-15.45h10.82v15.75c-.97-2.06-3.06-3.49-5.48-3.49Z"/>
          <path class="cls-10" d="M225.81,354.42v26.51c1.38-1.31,2.74-2.71,4.07-4.19-.1-.36-.18-.73-.18-1.12,0-2.23,1.81-4.04,4.04-4.04.11,0,.22.02.33.03.45-.6.89-1.22,1.33-1.85-.48-.12-.99-.2-1.51-.2-2.31,0-4.32,1.29-5.34,3.19v-15.45h10.82v6.03c.92-1.68,1.78-3.43,2.6-5.26v-3.66h-16.16Z"/>
          <path class="cls-11" d="M239.37,373.05c-.76-1.62-2.21-2.83-3.97-3.29-.44.63-.88,1.25-1.33,1.85,2.07.17,3.71,1.89,3.71,4.01,0,2.23-1.81,4.04-4.04,4.04-1.84,0-3.38-1.24-3.86-2.92-1.33,1.48-2.69,2.87-4.07,4.19v16.77h16.16v-39.62c-.81,1.83-1.68,3.58-2.6,5.26v9.72ZM239.37,394.38h-10.82v-15.89c1.02,1.9,3.03,3.19,5.34,3.19,2.43,0,4.51-1.43,5.48-3.49v16.19Z"/>
          <path class="cls-7" d="M216.43,388.52c-3.42,2.36-6.79,4.29-9.92,5.86h9.92v-5.86Z"/>
          <path class="cls-18" d="M216.43,378.19c-.97,2.06-3.06,3.49-5.48,3.49s-4.31-1.29-5.34-3.19v15.89h.9c3.13-1.57,6.5-3.51,9.92-5.86v-10.33Z"/>
          <path class="cls-18" d="M205.61,357.3v15.45c1.02-1.9,3.03-3.19,5.34-3.19,2.43,0,4.52,1.43,5.48,3.49v-15.75h-10.82Z"/>
          <path class="cls-7" d="M233.89,381.69c-2.31,0-4.32-1.29-5.34-3.19v15.89h10.82v-16.19c-.97,2.06-3.06,3.49-5.48,3.49Z"/>
          <path class="cls-18" d="M239.37,357.3h-10.82v15.45c1.02-1.9,3.03-3.19,5.34-3.19.52,0,1.03.08,1.51.2,1.4-2.02,2.73-4.16,3.97-6.44v-6.03Z"/>
          <path class="cls-7" d="M239.37,373.05v-9.72c-1.24,2.28-2.57,4.42-3.97,6.44,1.76.45,3.21,1.67,3.97,3.29Z"/>
          <path class="cls-7" d="M233.75,379.66c2.23,0,4.04-1.81,4.04-4.04s-1.64-3.84-3.71-4.01c-1.35,1.81-2.75,3.52-4.19,5.12.49,1.68,2.02,2.92,3.86,2.92Z"/>
          <path class="cls-18" d="M233.75,371.58c-2.23,0-4.04,1.81-4.04,4.04,0,.39.07.76.18,1.12,1.44-1.61,2.84-3.31,4.19-5.12-.11,0-.22-.03-.33-.03Z"/>
        </g>
        <path class="cls-10" d="M202.97,336.43v14.47h16.29v-19.83s-10.31-2.47-16.29,5.36Z"/>
        <path class="cls-18" d="M205.3,337.68v10.34h11.64v-14.17s-7.36-1.77-11.64,3.83Z"/>
        <path class="cls-10" d="M241.98,336.43v14.47h-16.29v-19.83s10.31-2.47,16.29,5.36Z"/>
        <path class="cls-13" d="M219.92,398.44h-17.64v-44.76h17.64v44.76ZM203.76,396.96h14.68v-41.8h-14.68v41.8Z"/>
        <path class="cls-13" d="M242.71,398.44h-17.64v-44.76h17.64v44.76ZM226.55,396.96h14.68v-41.8h-14.68v41.8Z"/>
        <path class="cls-13" d="M220,351.64h-17.77v-15.46l.15-.2c3.8-4.98,9.22-6.02,13.09-6.02,2.3,0,3.89.38,3.96.39l.57.14v21.16ZM203.71,350.16h14.81v-18.48c-.62-.1-1.71-.24-3.04-.24-3.49,0-8.34.92-11.76,5.24v13.48Z"/>
        <path class="cls-13" d="M242.72,351.64h-17.77v-21.16l.57-.14c.07-.02,1.66-.39,3.96-.39,3.88,0,9.29,1.04,13.09,6.02l.15.2v15.46ZM226.43,350.16h14.81v-13.48c-3.42-4.33-8.27-5.24-11.76-5.24-1.34,0-2.42.14-3.04.24v18.48Z"/>
        <path class="cls-18" d="M239.66,337.68v10.34h-11.64v-14.17s7.36-1.77,11.64,3.83Z"/>
        <path class="cls-18" d="M214.85,375.62c0,2.23-1.81,4.04-4.04,4.04s-4.04-1.81-4.04-4.04,1.81-4.04,4.04-4.04,4.04,1.81,4.04,4.04Z"/>
        <path class="cls-13" d="M217.67,348.76h-13.12v-11.33l.15-.2c2.77-3.62,6.7-4.38,9.52-4.38,1.67,0,2.83.27,2.88.29l.57.14v15.49ZM206.04,347.28h10.15v-12.81c-.45-.07-1.14-.14-1.96-.14-2.43,0-5.8.63-8.19,3.61v9.34Z"/>
        <path class="cls-13" d="M240.4,348.76h-13.12v-15.49l.57-.14s1.21-.29,2.88-.29c2.82,0,6.75.76,9.52,4.38l.15.2v11.33ZM228.76,347.28h10.15v-9.34c-2.39-2.98-5.76-3.61-8.19-3.61-.83,0-1.51.08-1.96.14v12.81Z"/>
        <g>
          <path class="cls-13" d="M217.17,395.12h-12.3v-19.56l1.39,2.58c.93,1.73,2.73,2.8,4.69,2.8s3.94-1.2,4.81-3.07l1.41-3.01v20.25ZM206.35,393.64h9.34v-13.15c-1.25,1.22-2.95,1.94-4.74,1.94s-3.36-.66-4.6-1.79v13Z"/>
          <path class="cls-13" d="M217.17,376.38l-1.41-3.01c-.87-1.86-2.76-3.07-4.81-3.07s-3.75,1.07-4.69,2.8l-1.39,2.58v-19.13h12.3v19.81ZM210.95,368.82c1.79,0,3.49.72,4.74,1.94v-12.72h-9.34v12.57c1.23-1.13,2.87-1.79,4.6-1.79Z"/>
        </g>
        <path class="cls-13" d="M210.81,380.4c-2.64,0-4.78-2.14-4.78-4.78s2.14-4.78,4.78-4.78,4.78,2.14,4.78,4.78-2.14,4.78-4.78,4.78ZM210.81,372.33c-1.82,0-3.3,1.48-3.3,3.3s1.48,3.3,3.3,3.3,3.3-1.48,3.3-3.3-1.48-3.3-3.3-3.3Z"/>
        <g>
          <path class="cls-13" d="M240.11,395.12h-12.3v-19.56l1.39,2.58c.93,1.73,2.73,2.8,4.69,2.8s3.94-1.2,4.81-3.07l1.41-3.01v20.25ZM229.29,393.64h9.34v-13.15c-1.25,1.22-2.95,1.94-4.74,1.94s-3.36-.66-4.6-1.79v13Z"/>
          <path class="cls-13" d="M240.11,376.38l-1.41-3.01c-.87-1.86-2.76-3.07-4.81-3.07s-3.75,1.07-4.69,2.8l-1.39,2.58v-19.13h12.3v19.81ZM233.89,368.82c1.79,0,3.49.72,4.74,1.94v-12.72h-9.34v12.57c1.23-1.13,2.87-1.79,4.6-1.79Z"/>
        </g>
        <path class="cls-13" d="M233.75,380.4c-2.64,0-4.78-2.14-4.78-4.78s2.14-4.78,4.78-4.78,4.78,2.14,4.78,4.78-2.14,4.78-4.78,4.78ZM233.75,372.33c-1.82,0-3.3,1.48-3.3,3.3s1.48,3.3,3.3,3.3,3.3-1.48,3.3-3.3-1.48-3.3-3.3-3.3Z"/>
        <path class="cls-13" d="M251.75,328.3c-9.51-4.64-19.4-6.99-29.41-6.99-17.06,0-28.35,6.74-28.82,7.03l-.42.25v76.47h5.24v-73.64c2.02-1.1,11.2-5.7,24.04-5.7,8.37,0,16.64,1.93,24.62,5.73v73.6h5.24v-76.53l-.49-.24Z"/>
      </g>
    </g>
  </g>
</svg>