<svg xmlns="http://www.w3.org/2000/svg" xmlns:xlink="http://www.w3.org/1999/xlink" width="500" zoomAndPan="magnify" viewBox="0 0 375 374.999991" height="500" preserveAspectRatio="xMidYMid meet" version="1.0"><defs><clipPath id="0b4dca8504"><path d="M 141 108.402344 L 180 108.402344 L 180 148 L 141 148 Z M 141 108.402344 " clip-rule="nonzero"/></clipPath><clipPath id="38641b6df1"><path d="M 112.5 115 L 262.5 115 L 262.5 200.652344 L 112.5 200.652344 Z M 112.5 115 " clip-rule="nonzero"/></clipPath></defs><g clip-path="url(#0b4dca8504)"><path fill="#d1bb9b" d="M 179.765625 127.828125 C 179.765625 138.558594 171.101562 147.253906 160.414062 147.253906 C 149.726562 147.253906 141.0625 138.558594 141.0625 127.828125 C 141.0625 117.097656 149.726562 108.402344 160.414062 108.402344 C 171.101562 108.402344 179.765625 117.097656 179.765625 127.828125 Z M 179.765625 127.828125 " fill-opacity="1" fill-rule="nonzero"/></g><g clip-path="url(#38641b6df1)"><path fill="#333333" d="M 262.367188 149.246094 C 262.28125 149.015625 262.128906 148.804688 261.910156 148.652344 L 235.421875 130.222656 C 235 129.929688 234.4375 129.929688 234.011719 130.222656 L 209.023438 147.609375 C 208.464844 148 208.324219 148.773438 208.714844 149.339844 C 209.101562 149.902344 209.875 150.042969 210.4375 149.652344 L 234.71875 132.757812 L 260.03125 150.371094 L 260.03125 198.164062 L 144.84375 198.164062 L 144.84375 191.351562 L 162.605469 191.351562 C 163.289062 191.351562 163.84375 190.792969 163.84375 190.109375 L 163.84375 165.6875 L 189.09375 148.117188 L 214.34375 165.6875 L 214.34375 190.109375 C 214.34375 190.792969 214.898438 191.351562 215.582031 191.351562 L 250.289062 191.351562 C 250.972656 191.351562 251.527344 190.792969 251.527344 190.109375 C 251.527344 189.421875 250.972656 188.863281 250.289062 188.863281 L 216.820312 188.863281 L 216.820312 165.035156 C 216.820312 164.628906 216.621094 164.246094 216.285156 164.015625 L 189.796875 145.585938 C 189.375 145.289062 188.8125 145.289062 188.386719 145.585938 L 161.902344 164.015625 C 161.566406 164.246094 161.367188 164.628906 161.367188 165.035156 L 161.367188 188.863281 L 144.84375 188.863281 L 144.84375 184.179688 C 145.816406 183.910156 146.765625 183.335938 147.59375 182.484375 C 148.566406 181.484375 149.335938 180.191406 149.875 178.695312 C 149.886719 178.671875 149.902344 178.648438 149.910156 178.625 C 149.921875 178.59375 149.925781 178.566406 149.933594 178.535156 C 150.535156 176.804688 150.839844 174.8125 150.789062 172.6875 C 150.632812 165.757812 146.785156 160.695312 144.503906 158.292969 C 144.269531 158.046875 143.945312 157.90625 143.605469 157.90625 C 143.269531 157.90625 142.945312 158.046875 142.710938 158.292969 C 140.429688 160.695312 136.578125 165.761719 136.421875 172.6875 C 136.332031 176.734375 137.496094 180.304688 139.621094 182.484375 C 140.449219 183.335938 141.394531 183.910156 142.367188 184.179688 L 142.367188 188.863281 L 124.03125 188.863281 L 124.03125 176.132812 C 125.003906 175.859375 125.953125 175.285156 126.78125 174.433594 C 128.90625 172.253906 130.070312 168.683594 129.980469 164.640625 C 129.820312 157.710938 125.972656 152.644531 123.691406 150.242188 C 123.457031 149.996094 123.132812 149.859375 122.792969 149.859375 C 122.457031 149.859375 122.132812 149.996094 121.898438 150.242188 C 119.617188 152.644531 115.765625 157.710938 115.609375 164.640625 C 115.597656 165.15625 115.609375 165.667969 115.636719 166.167969 C 115.636719 166.210938 115.640625 166.25 115.648438 166.292969 C 115.863281 169.648438 116.980469 172.558594 118.808594 174.433594 C 119.636719 175.285156 120.582031 175.859375 121.554688 176.132812 L 121.554688 188.863281 L 113.738281 188.863281 C 113.054688 188.863281 112.5 189.421875 112.5 190.109375 C 112.5 190.792969 113.054688 191.351562 113.738281 191.351562 L 142.367188 191.351562 L 142.367188 198.164062 L 136.039062 198.164062 C 135.355469 198.164062 134.800781 198.71875 134.800781 199.40625 C 134.800781 200.09375 135.355469 200.648438 136.039062 200.648438 L 261.269531 200.648438 C 261.953125 200.648438 262.507812 200.09375 262.507812 199.40625 L 262.507812 149.8125 C 262.507812 149.609375 262.453125 149.417969 262.367188 149.246094 Z M 138.898438 172.746094 C 138.929688 171.277344 139.160156 169.902344 139.511719 168.628906 L 148.269531 171.835938 C 148.289062 172.132812 148.308594 172.4375 148.316406 172.746094 C 148.34375 174.089844 148.207031 175.378906 147.929688 176.550781 L 138.898438 173.140625 C 138.894531 173.007812 138.894531 172.878906 138.898438 172.746094 Z M 143.605469 161.011719 C 145.113281 162.804688 146.941406 165.546875 147.808594 169.023438 L 140.332031 166.285156 C 141.273438 164.089844 142.519531 162.304688 143.605469 161.011719 Z M 139.144531 175.890625 L 147.101562 178.894531 C 146.742188 179.613281 146.316406 180.238281 145.824219 180.746094 C 145.113281 181.472656 144.328125 181.875 143.605469 181.875 C 142.886719 181.875 142.097656 181.472656 141.390625 180.746094 C 140.292969 179.621094 139.515625 177.902344 139.144531 175.890625 Z M 118.085938 164.695312 C 118.117188 163.300781 118.324219 161.988281 118.648438 160.769531 L 127.472656 164.097656 C 127.484375 164.296875 127.5 164.492188 127.503906 164.695312 C 127.535156 166.109375 127.382812 167.460938 127.074219 168.679688 L 118.085938 165.285156 C 118.082031 165.089844 118.082031 164.894531 118.085938 164.695312 Z M 122.792969 152.960938 C 124.347656 154.8125 126.234375 157.664062 127.070312 161.292969 L 119.445312 158.414062 C 120.390625 156.136719 121.679688 154.289062 122.792969 152.960938 Z M 118.371094 168.050781 L 126.203125 171.007812 C 125.863281 171.65625 125.464844 172.230469 125.011719 172.695312 C 124.300781 173.425781 123.515625 173.824219 122.792969 173.824219 C 122.074219 173.824219 121.289062 173.425781 120.578125 172.695312 C 119.519531 171.609375 118.757812 169.972656 118.371094 168.050781 Z M 154.097656 152.574219 C 164.394531 152.574219 172.769531 144.167969 172.769531 133.832031 C 172.769531 123.496094 164.394531 115.089844 154.097656 115.089844 C 143.800781 115.089844 135.425781 123.496094 135.425781 133.832031 C 135.425781 144.167969 143.800781 152.574219 154.097656 152.574219 Z M 154.097656 117.574219 C 163.027344 117.574219 170.292969 124.867188 170.292969 133.832031 C 170.292969 142.796875 163.027344 150.089844 154.097656 150.089844 C 145.167969 150.089844 137.902344 142.796875 137.902344 133.832031 C 137.902344 124.867188 145.167969 117.574219 154.097656 117.574219 Z M 154.097656 117.574219 " fill-opacity="1" fill-rule="nonzero"/></g></svg>