<svg xmlns="http://www.w3.org/2000/svg" xmlns:xlink="http://www.w3.org/1999/xlink" width="500" zoomAndPan="magnify" viewBox="0 0 375 374.999991" height="500" preserveAspectRatio="xMidYMid meet" version="1.0"><defs><clipPath id="fe426b8e12"><path d="M 71 72.613281 L 169 72.613281 L 169 170 L 71 170 Z M 71 72.613281 " clip-rule="nonzero"/></clipPath><clipPath id="995de73915"><path d="M 0 89 L 375 89 L 375 302.113281 L 0 302.113281 Z M 0 89 " clip-rule="nonzero"/></clipPath></defs><g clip-path="url(#fe426b8e12)"><path fill="#d1bb9b" d="M 168.167969 120.949219 C 168.167969 147.640625 146.503906 169.277344 119.785156 169.277344 C 93.0625 169.277344 71.398438 147.640625 71.398438 120.949219 C 71.398438 94.257812 93.0625 72.621094 119.785156 72.621094 C 146.503906 72.621094 168.167969 94.257812 168.167969 120.949219 Z M 168.167969 120.949219 " fill-opacity="1" fill-rule="nonzero"/></g><g clip-path="url(#995de73915)"><path fill="#333333" d="M 374.671875 174.234375 C 374.457031 173.65625 374.078125 173.132812 373.53125 172.753906 L 307.3125 126.910156 C 306.253906 126.175781 304.84375 126.175781 303.785156 126.910156 L 241.316406 170.160156 C 239.910156 171.132812 239.558594 173.058594 240.535156 174.460938 C 241.507812 175.867188 243.4375 176.214844 244.839844 175.242188 L 305.550781 133.214844 L 368.832031 177.023438 L 368.832031 295.917969 L 80.859375 295.917969 L 80.859375 278.96875 L 125.261719 278.96875 C 126.972656 278.96875 128.359375 277.585938 128.359375 275.878906 L 128.359375 215.128906 L 191.484375 171.425781 L 254.605469 215.128906 L 254.605469 275.878906 C 254.605469 277.585938 255.992188 278.96875 257.703125 278.96875 L 344.480469 278.96875 C 346.1875 278.96875 347.574219 277.585938 347.574219 275.878906 C 347.574219 274.171875 346.1875 272.785156 344.480469 272.785156 L 260.796875 272.785156 L 260.796875 213.507812 C 260.796875 212.496094 260.300781 211.542969 259.464844 210.96875 L 193.246094 165.125 C 192.1875 164.390625 190.78125 164.390625 189.71875 165.125 L 123.5 210.96875 C 122.664062 211.542969 122.167969 212.496094 122.167969 213.507812 L 122.167969 272.785156 L 80.859375 272.785156 L 80.859375 261.132812 C 83.292969 260.460938 85.660156 259.027344 87.730469 256.910156 C 90.164062 254.425781 92.085938 251.207031 93.441406 247.492188 C 93.46875 247.429688 93.5 247.375 93.523438 247.3125 C 93.550781 247.238281 93.5625 247.164062 93.582031 247.089844 C 95.089844 242.785156 95.84375 237.832031 95.722656 232.542969 C 95.332031 215.308594 85.707031 202.710938 80.003906 196.734375 C 79.421875 196.121094 78.609375 195.777344 77.761719 195.777344 C 76.917969 195.777344 76.105469 196.121094 75.523438 196.734375 C 69.820312 202.710938 60.195312 215.3125 59.804688 232.542969 C 59.574219 242.605469 62.488281 251.488281 67.796875 256.910156 C 69.867188 259.027344 72.234375 260.460938 74.667969 261.132812 L 74.667969 272.785156 L 28.828125 272.785156 L 28.828125 241.109375 C 31.261719 240.4375 33.628906 239.007812 35.699219 236.890625 C 41.007812 231.464844 43.921875 222.582031 43.695312 212.519531 C 43.300781 195.289062 33.675781 182.6875 27.972656 176.710938 C 27.390625 176.101562 26.578125 175.753906 25.734375 175.753906 C 24.886719 175.753906 24.078125 176.101562 23.492188 176.710938 C 17.789062 182.6875 8.164062 195.289062 7.773438 212.519531 C 7.742188 213.808594 7.765625 215.078125 7.839844 216.324219 C 7.839844 216.429688 7.851562 216.53125 7.863281 216.636719 C 8.40625 224.980469 11.195312 232.21875 15.765625 236.890625 C 17.839844 239.007812 20.207031 240.4375 22.636719 241.109375 L 22.636719 272.785156 L 3.09375 272.785156 C 1.386719 272.785156 0 274.171875 0 275.878906 C 0 277.585938 1.386719 278.96875 3.09375 278.96875 L 74.667969 278.96875 L 74.667969 295.917969 L 58.847656 295.917969 C 57.140625 295.917969 55.753906 297.300781 55.753906 299.011719 C 55.753906 300.71875 57.140625 302.101562 58.847656 302.101562 L 371.925781 302.101562 C 373.636719 302.101562 375.023438 300.71875 375.023438 299.011719 L 375.023438 175.640625 C 375.023438 175.128906 374.886719 174.65625 374.671875 174.234375 Z M 65.992188 232.683594 C 66.074219 229.03125 66.648438 225.617188 67.527344 222.449219 L 89.417969 230.425781 C 89.476562 231.167969 89.519531 231.921875 89.535156 232.683594 C 89.609375 236.03125 89.269531 239.238281 88.574219 242.152344 L 65.988281 233.671875 C 65.988281 233.34375 65.984375 233.015625 65.992188 232.683594 Z M 77.761719 203.496094 C 81.53125 207.960938 86.097656 214.777344 88.273438 223.425781 L 69.578125 216.613281 C 71.929688 211.15625 75.050781 206.710938 77.761719 203.496094 Z M 66.605469 240.507812 L 86.5 247.980469 C 85.609375 249.765625 84.539062 251.328125 83.304688 252.589844 C 81.53125 254.398438 79.566406 255.394531 77.761719 255.394531 C 75.960938 255.394531 73.996094 254.398438 72.222656 252.589844 C 69.480469 249.789062 67.535156 245.515625 66.605469 240.507812 Z M 13.960938 212.660156 C 14.039062 209.1875 14.5625 205.929688 15.363281 202.894531 L 37.425781 211.179688 C 37.457031 211.671875 37.492188 212.160156 37.503906 212.660156 C 37.585938 216.179688 37.207031 219.542969 36.433594 222.574219 L 13.957031 214.132812 C 13.949219 213.644531 13.949219 213.15625 13.960938 212.660156 Z M 25.734375 183.476562 C 29.613281 188.074219 34.332031 195.175781 36.421875 204.195312 L 17.355469 197.035156 C 19.726562 191.371094 22.945312 186.777344 25.734375 183.476562 Z M 14.675781 221.007812 L 34.257812 228.363281 C 33.410156 229.980469 32.414062 231.402344 31.273438 232.566406 C 29.503906 234.375 27.535156 235.375 25.734375 235.375 C 23.933594 235.375 21.964844 234.375 20.191406 232.566406 C 17.546875 229.863281 15.644531 225.789062 14.675781 221.007812 Z M 103.992188 182.511719 C 129.730469 182.511719 150.671875 161.59375 150.671875 135.886719 C 150.671875 110.175781 129.730469 89.261719 103.992188 89.261719 C 78.253906 89.261719 57.3125 110.175781 57.3125 135.886719 C 57.3125 161.59375 78.253906 182.511719 103.992188 182.511719 Z M 103.992188 95.445312 C 126.316406 95.445312 144.480469 113.585938 144.480469 135.886719 C 144.480469 158.1875 126.316406 176.328125 103.992188 176.328125 C 81.667969 176.328125 63.503906 158.1875 63.503906 135.886719 C 63.503906 113.585938 81.667969 95.445312 103.992188 95.445312 Z M 103.992188 95.445312 " fill-opacity="1" fill-rule="nonzero"/></g></svg>