<svg xmlns="http://www.w3.org/2000/svg" xmlns:xlink="http://www.w3.org/1999/xlink" width="500" zoomAndPan="magnify" viewBox="0 0 375 374.999991" height="500" preserveAspectRatio="xMidYMid meet" version="1.0"><defs><clipPath id="263421067a"><path d="M 11 32.8125 L 140 32.8125 L 140 213 L 11 213 Z M 11 32.8125 " clip-rule="nonzero"/></clipPath><clipPath id="5c2efea451"><path d="M 223 32.8125 L 352 32.8125 L 352 210 L 223 210 Z M 223 32.8125 " clip-rule="nonzero"/></clipPath><clipPath id="1e2b67e62f"><path d="M 0 117 L 375 117 L 375 342.5625 L 0 342.5625 Z M 0 117 " clip-rule="nonzero"/></clipPath></defs><g clip-path="url(#263421067a)"><path fill="#004aad" d="M 104.160156 177.164062 L 104.160156 119.828125 C 104.160156 111.109375 104.160156 103.738281 104.226562 97.816406 C 104.226562 91.957031 104.289062 86.980469 104.355469 83.023438 C 104.355469 79.070312 104.488281 75.667969 104.566406 72.804688 L 104.972656 64.769531 C 105.25 57.675781 106.535156 52.222656 108.71875 48.480469 C 110.898438 44.804688 114.71875 42.414062 120.105469 41.453125 C 122.5625 41.046875 124.742188 40.703125 126.644531 40.496094 C 128.550781 40.285156 130.324219 40.21875 131.964844 40.21875 C 134.421875 40.21875 136.261719 39.941406 137.484375 39.46875 C 138.71875 38.917969 139.320312 37.90625 139.320312 36.542969 C 139.320312 35.109375 138.636719 34.152344 137.207031 33.613281 C 135.773438 33.058594 133.59375 32.863281 130.730469 32.863281 C 126.710938 32.863281 122.207031 32.929688 117.308594 33.074219 C 112.460938 33.140625 107.5625 33.347656 102.648438 33.480469 C 97.738281 33.613281 93.246094 33.757812 89.144531 33.886719 C 85.0625 34.019531 81.726562 34.097656 79.191406 34.097656 C 75.367188 34.097656 70.324219 33.953125 63.914062 33.757812 C 57.503906 33.546875 50.554688 33.347656 42.925781 33.21875 C 35.292969 33.007812 27.792969 32.875 20.292969 32.875 C 17.429688 32.8125 15.316406 33.085938 13.882812 33.625 C 12.453125 34.164062 11.703125 35.121094 11.703125 36.554688 C 11.703125 37.921875 12.320312 38.945312 13.476562 39.484375 C 14.699219 39.957031 16.40625 40.230469 18.652344 40.230469 C 21.644531 40.230469 24.589844 40.296875 27.582031 40.507812 C 30.511719 40.703125 32.902344 41.058594 34.597656 41.464844 C 39.023438 42.359375 42.503906 43.792969 44.960938 45.695312 C 47.417969 47.535156 49.191406 50.058594 50.28125 53.195312 C 51.304688 56.257812 51.988281 60.144531 52.183594 64.78125 L 52.59375 72.820312 C 52.65625 75.683594 52.800781 79.085938 52.867188 83.039062 C 52.867188 86.992188 52.933594 91.96875 52.933594 97.828125 C 53 103.753906 53 111.121094 53 119.84375 L 53 212.890625 C 70.640625 201.832031 87.703125 189.890625 104.160156 177.164062 " fill-opacity="1" fill-rule="evenodd"/></g><g clip-path="url(#5c2efea451)"><path fill="#004aad" d="M 265.246094 97.800781 C 265.3125 103.726562 265.3125 111.09375 265.3125 119.816406 L 265.3125 173.917969 C 281.769531 186.515625 298.871094 198.308594 316.433594 209.316406 L 316.433594 119.816406 C 316.433594 111.09375 316.433594 103.726562 316.496094 97.800781 C 316.496094 91.945312 316.5625 86.964844 316.628906 83.011719 L 316.824219 72.792969 L 317.234375 64.753906 C 317.507812 57.660156 318.796875 52.210938 320.988281 48.46875 C 323.167969 44.789062 326.992188 42.398438 332.378906 41.441406 C 334.832031 41.035156 337.015625 40.691406 338.917969 40.480469 C 340.824219 40.269531 342.597656 40.207031 344.238281 40.207031 C 346.695312 40.207031 348.535156 39.929688 349.753906 39.457031 C 350.976562 38.90625 351.59375 37.894531 351.59375 36.527344 C 351.59375 35.097656 350.910156 34.136719 349.480469 33.597656 C 348.046875 33.046875 345.867188 32.851562 343.003906 32.851562 C 338.984375 32.851562 334.480469 32.914062 329.644531 33.058594 C 324.734375 33.125 319.832031 33.335938 314.921875 33.46875 L 301.417969 33.875 C 297.332031 34.007812 293.984375 34.085938 291.460938 34.085938 C 288.664062 34.085938 285.050781 34.019531 280.691406 33.875 C 276.398438 33.742188 271.484375 33.597656 266.179688 33.46875 C 260.859375 33.335938 255.277344 33.125 249.550781 33.058594 C 243.820312 32.929688 238.160156 32.851562 232.578125 32.851562 C 229.714844 32.785156 227.601562 33.058594 226.167969 33.597656 C 224.738281 34.136719 223.988281 35.097656 223.988281 36.527344 C 223.988281 37.894531 224.605469 38.917969 225.761719 39.457031 C 226.984375 39.929688 228.691406 40.207031 230.9375 40.207031 C 233.933594 40.207031 236.875 40.269531 239.867188 40.480469 C 242.796875 40.679688 245.1875 41.035156 246.882812 41.441406 C 251.308594 42.332031 254.789062 43.765625 257.246094 45.667969 C 259.769531 47.507812 261.476562 50.03125 262.566406 53.167969 C 263.589844 56.230469 264.273438 60.117188 264.46875 64.753906 C 264.667969 67.277344 264.8125 70.007812 264.878906 72.792969 C 265.007812 75.65625 265.074219 79.058594 265.152344 83.011719 C 265.179688 86.964844 265.246094 91.929688 265.246094 97.800781 " fill-opacity="1" fill-rule="evenodd"/></g><g clip-path="url(#1e2b67e62f)"><path fill="#004aad" d="M 265.246094 258.941406 C 265.179688 269.988281 265.035156 279.863281 264.695312 288.664062 C 264.417969 297.464844 263.945312 304.753906 263.261719 310.546875 C 262.777344 314.5 262.105469 318.113281 261.277344 321.316406 C 260.464844 324.457031 259.296875 327.109375 257.730469 329.082031 C 256.234375 331.128906 254.121094 332.496094 251.386719 333.035156 C 249.550781 333.441406 247.433594 333.847656 244.976562 334.191406 C 242.523438 334.464844 239.722656 334.664062 236.664062 334.664062 C 234.273438 334.664062 232.578125 334.9375 231.554688 335.542969 C 230.609375 336.082031 230.121094 336.910156 230.121094 337.933594 C 230.121094 339.363281 230.871094 340.390625 232.304688 341.074219 C 233.734375 341.691406 235.847656 342.03125 238.710938 342.03125 C 242.796875 342.03125 247.238281 341.964844 252.136719 341.820312 L 266.730469 341.414062 C 271.640625 341.28125 276.066406 341.136719 280.152344 341.007812 C 284.171875 340.875 287.441406 340.808594 289.832031 340.808594 C 293.722656 340.808594 298.976562 340.941406 305.582031 341.152344 C 312.125 341.363281 319.558594 341.492188 327.871094 341.703125 C 336.121094 341.914062 344.710938 342.042969 353.644531 342.042969 C 356.164062 342.042969 358.148438 341.703125 359.566406 341.085938 C 361.0625 340.402344 361.8125 339.378906 361.8125 337.945312 C 361.8125 336.921875 361.261719 336.109375 360.25 335.554688 C 359.160156 334.9375 357.515625 334.675781 355.269531 334.675781 C 353.222656 334.675781 350.910156 334.609375 348.390625 334.464844 L 341.035156 333.863281 C 338.578125 333.585938 336.398438 333.308594 334.425781 333.046875 C 330.40625 332.507812 327.269531 331.144531 325.085938 329.160156 C 322.972656 327.109375 321.410156 324.523438 320.449219 321.382812 C 319.492188 318.308594 318.808594 314.777344 318.46875 310.953125 C 317.785156 305.03125 317.3125 297.660156 317.035156 288.796875 C 316.761719 279.929688 316.5625 269.988281 316.496094 258.941406 C 316.457031 252.742188 316.445312 246.316406 316.433594 239.660156 C 325.246094 244.914062 334.097656 249.941406 342.949219 254.75 L 375.050781 254.75 C 305.738281 220.035156 239.617188 174.652344 186.765625 117.621094 C 133.199219 173.378906 69.773438 221.074219 0.0390625 254.75 L 32.640625 254.75 C 39.484375 251.085938 46.273438 247.261719 53.011719 243.308594 C 53 248.667969 52.984375 253.871094 52.960938 258.941406 C 52.894531 269.988281 52.683594 279.863281 52.421875 288.664062 C 52.144531 297.464844 51.671875 304.753906 50.988281 310.546875 C 50.515625 314.5 49.832031 318.113281 49.019531 321.316406 C 48.191406 324.457031 47.035156 327.109375 45.472656 329.082031 C 43.976562 331.128906 41.859375 332.496094 39.128906 333.035156 C 37.289062 333.441406 35.175781 333.847656 32.71875 334.191406 C 30.261719 334.464844 27.464844 334.664062 24.40625 334.664062 C 22.015625 334.664062 20.320312 334.9375 19.296875 335.542969 C 18.335938 336.082031 17.863281 336.910156 17.863281 337.933594 C 17.863281 339.367188 18.546875 340.390625 19.976562 341.074219 C 21.34375 341.691406 23.378906 342.03125 26.046875 342.03125 C 30.210938 342.03125 34.769531 341.964844 39.679688 341.820312 L 54.40625 341.414062 C 59.316406 341.28125 63.808594 341.136719 67.90625 341.007812 C 71.925781 340.875 75.195312 340.808594 77.585938 340.808594 C 81.476562 340.808594 86.730469 340.941406 93.335938 341.152344 C 99.878906 341.363281 107.3125 341.492188 115.558594 341.703125 C 123.875 341.914062 132.464844 342.042969 141.398438 342.042969 C 143.917969 342.042969 145.890625 341.703125 147.320312 341.085938 C 148.816406 340.402344 149.566406 339.378906 149.566406 337.945312 C 149.566406 336.921875 149.015625 336.109375 148.003906 335.554688 C 146.914062 334.9375 145.269531 334.675781 143.027344 334.675781 C 140.910156 334.675781 138.664062 334.609375 136.144531 334.464844 L 128.789062 333.863281 C 126.332031 333.585938 124.152344 333.308594 122.179688 333.046875 C 118.160156 332.507812 115.023438 331.144531 112.839844 329.160156 C 110.660156 327.109375 109.164062 324.523438 108.203125 321.382812 C 107.246094 318.308594 106.5625 314.777344 106.234375 310.953125 C 105.550781 305.03125 105.078125 297.664062 104.804688 288.796875 C 104.527344 279.929688 104.332031 269.988281 104.265625 258.941406 C 104.199219 247.828125 104.199219 236.035156 104.199219 223.425781 L 104.199219 210.050781 C 133.816406 188.800781 161.664062 165.222656 186.699219 140.265625 C 209.738281 163.648438 236.652344 185.964844 265.351562 206.375 L 265.351562 223.425781 C 265.3125 236.046875 265.3125 247.839844 265.246094 258.941406 " fill-opacity="1" fill-rule="evenodd"/></g><path fill="#004aad" d="M 157.855469 201.304688 L 182.8125 201.304688 L 182.8125 226.261719 L 157.855469 226.261719 Z M 157.855469 201.304688 " fill-opacity="1" fill-rule="evenodd"/><path fill="#004aad" d="M 192.320312 201.304688 L 217.277344 201.304688 L 217.277344 226.261719 L 192.320312 226.261719 Z M 192.320312 201.304688 " fill-opacity="1" fill-rule="evenodd"/><path fill="#004aad" d="M 157.855469 235.769531 L 182.8125 235.769531 L 182.8125 260.726562 L 157.855469 260.726562 Z M 157.855469 235.769531 " fill-opacity="1" fill-rule="evenodd"/><path fill="#004aad" d="M 192.320312 235.769531 L 217.277344 235.769531 L 217.277344 260.726562 L 192.320312 260.726562 Z M 192.320312 235.769531 " fill-opacity="1" fill-rule="evenodd"/></svg>